<svg width="174" height="100" viewBox="0 0 174 100" fill="none" xmlns="http://www.w3.org/2000/svg">
<path d="M13.0805 99.4329C9.22808 99.4329 6.04562 98.0886 3.53316 95.4001C1.02069 92.7116 -0.151795 89.435 0.015703 85.5703C0.183201 81.7895 1.71162 78.5759 4.60096 75.9294C7.49029 73.2829 10.8193 71.9597 14.588 71.9597C18.3148 71.9597 21.4764 73.3039 24.0726 75.9924C26.7107 78.6809 27.9041 81.8736 27.6528 85.5703C27.4853 88.1748 26.6897 90.5272 25.266 92.6276C23.8841 94.728 22.1254 96.3873 19.9898 97.6055C17.8542 98.8238 15.5511 99.4329 13.0805 99.4329Z" fill="white" style="mix-blend-mode:difference"/>
<path d="M91.9337 100C85.82 100 80.3135 98.9078 75.4142 96.7234C70.5568 94.497 66.7043 91.2203 63.8569 86.8935C61.0513 82.5667 59.6485 77.2317 59.6485 70.8885C59.6485 65.4274 60.6535 60.9116 62.6634 57.3409C64.6734 53.7702 67.4162 50.9137 70.8918 48.7713C74.3674 46.6288 78.2826 45.0115 82.6376 43.9193C87.0344 42.7851 91.5778 41.966 96.2677 41.4619C101.921 40.8738 106.506 40.3487 110.023 39.8866C113.541 39.3825 116.095 38.6263 117.686 37.6181C119.32 36.5679 120.136 34.9506 120.136 32.7662V32.3881C120.136 27.6412 118.733 23.9655 115.928 21.3611C113.122 18.7566 109.081 17.4543 103.805 17.4543C98.2358 17.4543 93.818 18.6725 90.5518 21.109C87.3275 23.5455 85.15 26.423 84.0194 29.7416L62.7891 26.7171C64.464 20.8359 67.2278 15.921 71.0802 11.9723C74.9327 7.98151 79.6435 4.99894 85.2128 3.02457C90.7821 1.00818 96.9377 0 103.679 0C108.328 0 112.955 0.546099 117.561 1.6383C122.167 2.73051 126.375 4.53685 130.186 7.05733C133.997 9.5358 137.053 12.9174 139.357 17.2023C141.701 21.4871 142.874 26.8431 142.874 33.2703V98.0466H121.015V84.7511H120.262C118.88 87.4396 116.933 89.9601 114.42 92.3125C111.95 94.623 108.83 96.4923 105.061 97.9206C101.335 99.3069 96.9586 100 91.9337 100ZM97.838 83.2388C102.402 83.2388 106.359 82.3356 109.709 80.5293C113.059 78.6809 115.635 76.2445 117.435 73.2199C119.278 70.1953 120.199 66.8977 120.199 63.327V51.9219C119.487 52.51 118.273 53.0561 116.556 53.5602C114.881 54.0643 112.997 54.5053 110.903 54.8834C108.809 55.2615 106.736 55.5976 104.684 55.8916C102.633 56.1857 100.853 56.4377 99.3455 56.6478C95.9536 57.1098 92.9177 57.866 90.2378 58.9162C87.5578 59.9664 85.4431 61.4367 83.8938 63.327C82.3444 65.1754 81.5698 67.5698 81.5698 70.5104C81.5698 74.7112 83.0982 77.8828 86.155 80.0252C89.2118 82.1676 93.1062 83.2388 97.838 83.2388Z" fill="white" style="mix-blend-mode:difference"/>
<path d="M157.228 17.2244L158.985 6.56497H164.24C164.835 6.56497 165.382 6.69978 165.881 6.9694C166.39 7.22938 166.774 7.61937 167.033 8.13934C167.302 8.65931 167.369 9.29965 167.235 10.0604C167.1 10.8211 166.808 11.471 166.356 12.0103C165.915 12.5399 165.392 12.9443 164.787 13.2235C164.182 13.5028 163.573 13.6424 162.959 13.6424H159.287L159.604 11.7214H162.642C163.007 11.7214 163.376 11.5818 163.75 11.3025C164.125 11.0136 164.355 10.5996 164.442 10.0604C164.528 9.4826 164.427 9.07818 164.139 8.84708C163.851 8.61598 163.534 8.50043 163.189 8.50043H161.288L159.849 17.2244H157.228ZM164.715 12.2702L166.4 17.2244H163.52L161.965 12.2702H164.715ZM162.167 23.5797C160.573 23.5797 159.081 23.2812 157.689 22.6842C156.297 22.0872 155.073 21.259 154.018 20.1998C152.962 19.1406 152.136 17.9129 151.541 16.5167C150.946 15.1205 150.648 13.6231 150.648 12.0247C150.648 10.4263 150.946 8.92893 151.541 7.5327C152.136 6.13648 152.957 4.90876 154.003 3.84956C155.059 2.79035 156.283 1.96224 157.675 1.36524C159.076 0.76823 160.573 0.469727 162.167 0.469727C163.75 0.469727 165.238 0.76823 166.63 1.36524C168.031 1.96224 169.26 2.79035 170.316 3.84956C171.372 4.90876 172.197 6.13648 172.792 7.5327C173.387 8.92893 173.685 10.4263 173.685 12.0247C173.685 13.6231 173.383 15.1205 172.778 16.5167C172.183 17.9129 171.357 19.1406 170.301 20.1998C169.246 21.259 168.022 22.0872 166.63 22.6842C165.238 23.2812 163.75 23.5797 162.167 23.5797ZM162.167 20.6187C163.741 20.6187 165.176 20.2335 166.472 19.4632C167.767 18.6833 168.799 17.6433 169.567 16.3434C170.345 15.0434 170.733 13.6039 170.733 12.0247C170.733 10.4455 170.345 9.00596 169.567 7.70603C168.799 6.39646 167.767 5.35652 166.472 4.58618C165.176 3.81585 163.741 3.43069 162.167 3.43069C160.583 3.43069 159.143 3.81585 157.847 4.58618C156.552 5.35652 155.52 6.39646 154.752 7.70603C153.984 9.00596 153.595 10.4455 153.586 12.0247C153.586 13.6039 153.97 15.0434 154.737 16.3434C155.515 17.6433 156.552 18.6833 157.847 19.4632C159.143 20.2335 160.583 20.6187 162.167 20.6187Z" fill="white" style="mix-blend-mode:difference"/>
</svg>
