<svg width="241" height="30" viewBox="0 0 241 30" fill="none" xmlns="http://www.w3.org/2000/svg">
<path d="M238.896 0.574219C238.823 2.63367 238.554 4.64272 238.102 6.58496C237.419 9.52037 236.322 12.2954 234.879 14.8516C234.493 15.5365 234.081 16.205 233.646 16.8555C233.467 17.1244 233.286 17.3919 233.098 17.6562C233.002 17.7904 232.903 17.9241 232.805 18.0566L232.767 18.1084C232.762 18.1128 232.754 18.1241 232.753 18.125L240.166 29.3535H231.065L227.576 23.6025C227.367 23.7772 227.155 23.95 226.941 24.1201C226.877 24.1706 226.81 24.219 226.746 24.2695C223.88 26.4992 220.62 28.2434 217.089 29.3789C216.365 29.611 215.632 29.8185 214.888 30V22.1953C217.37 21.3862 219.671 20.1795 221.724 18.6533C221.963 18.4764 222.2 18.2975 222.432 18.1113C222.928 17.7114 223.411 17.2951 223.873 16.8584C224.149 16.5987 224.42 16.3272 224.685 16.0537C225.059 15.6676 225.422 15.2678 225.77 14.8564C227.785 12.4681 229.344 9.67925 230.305 6.62891L198.617 6.59277V29.3076H190.595V6.59277H174.368V0.555664L238.896 0.574219ZM21.4629 0C27.9474 1.28979e-05 33.3677 0.885087 38.6592 3.24121L37.0361 9.26074C32.7675 7.3667 27.5193 6.22949 22.1865 6.22949C13.3991 6.22957 8.36255 9.42879 8.3623 14.9844C8.3623 20.5402 13.654 23.6548 22.1865 23.6963L22.1895 23.6943C28.3336 23.6943 32.7701 22.4323 37.0801 20.7061L38.7002 26.6416C33.5375 28.7448 28.5035 29.8828 21.4629 29.8828C10.5397 29.8828 0.000191978 25.8415 0 14.9414C0 3.3262 12.3302 0 21.4629 0ZM50.9043 10.5186H72.9648V0.533203H80.9873V29.292H72.9648V16.833H50.9043V29.292H42.8838V0.533203H50.9043V10.5186ZM130.827 29.292H120.842L117.727 24.1729H97.501L94.3008 29.292H84.5293L103.73 0.27832H111.665L130.827 29.292ZM160.523 0.530273C166.925 0.530273 171.746 3.90331 171.746 10.5166C171.746 17.1295 166.925 20.9706 160.567 20.9707H142.39V29.292H134.367V0.533203H160.523V0.530273ZM101.084 18.1133H114.097L107.654 7.48926L101.084 18.1133ZM142.39 14.9131H158.646V14.9111C161.418 14.9111 163.466 13.2885 163.466 10.6016C163.466 7.91442 161.248 6.54884 158.347 6.54883H142.39V14.9131Z" fill="white" style="mix-blend-mode:difference"/>
</svg>
