<svg width="106" height="100" viewBox="0 0 106 100" fill="none" xmlns="http://www.w3.org/2000/svg">
<g clip-path="url(#clip0_825_17453)">
<path d="M0 12.8359C0 5.74681 5.81587 0 12.9901 0H93.0091C100.183 0 105.999 5.74681 105.999 12.8359C105.999 19.9249 100.183 25.6717 93.0091 25.6717H12.9901C5.81587 25.6717 0 19.9249 0 12.8359Z" fill="white" style="mix-blend-mode:difference"/>
<path d="M0 49.8029C0 42.7139 5.81587 36.967 12.9901 36.967C20.1643 36.967 25.9802 42.7139 25.9802 49.8029C25.9802 56.8917 20.1643 62.6387 12.9901 62.6387C5.81587 62.6387 0 56.8917 0 49.8029Z" fill="white" style="mix-blend-mode:difference"/>
<path d="M34.293 49.8029C34.293 42.7139 40.1088 36.967 47.2832 36.967H67.028C74.202 36.967 80.0181 42.7139 80.0181 49.8029C80.0181 56.8917 74.202 62.6387 67.028 62.6387H47.2832C40.1088 62.6387 34.293 56.8917 34.293 49.8029Z" fill="white" style="mix-blend-mode:difference"/>
<path d="M0 86.7703C0 79.6811 5.81587 73.9341 12.9901 73.9341H58.7153C65.8893 73.9341 71.7053 79.6811 71.7053 86.7703C71.7053 93.8591 65.8893 99.6061 58.7153 99.6061H12.9901C5.81587 99.6061 0 93.8591 0 86.7703Z" fill="white" style="mix-blend-mode:difference"/>
<path d="M80.0195 86.7703C80.0195 79.6811 85.8351 73.9341 93.0095 73.9341C100.184 73.9341 106 79.6811 106 86.7703C106 93.8591 100.184 99.6061 93.0095 99.6061C85.8351 99.6061 80.0195 93.8591 80.0195 86.7703Z" fill="white" style="mix-blend-mode:difference"/>
</g>
<defs>
<clipPath id="clip0_825_17453">
<rect width="106" height="100" fill="white"/>
</clipPath>
</defs>
</svg>
