<svg width="100" height="100" viewBox="0 0 100 100" fill="none" xmlns="http://www.w3.org/2000/svg">
<path d="M100.003 100H80.8945V87.3418C72.3425 94.4499 61.3527 98.7255 49.3633 98.7256V74.3193C55.6516 74.3193 61.3956 71.9917 65.7842 68.1533H49.0469V49.0449H100.003V100ZM24.5439 51.9854C25.7647 63.6724 35.0515 72.9599 46.7383 74.1816C34.3411 75.4922 24.6816 85.981 24.6816 98.7256C24.6816 85.0944 13.6312 74.0439 0 74.0439C12.7452 74.0439 23.2342 64.3833 24.5439 51.9854ZM49.3633 24.4072C35.5808 24.4074 24.4073 35.5808 24.4072 49.3633H0C0 22.1008 22.1008 0 49.3633 0V24.4072ZM74.0615 0C74.0615 13.6312 85.112 24.6816 98.7432 24.6816C85.999 24.6816 75.5103 34.3407 74.1992 46.7373C72.9771 35.0513 63.6903 25.765 52.0039 24.5439C64.4014 23.2338 74.0615 12.7448 74.0615 0Z" fill="white" style="mix-blend-mode:difference"/>
</svg>
