<svg width="732" height="621" viewBox="0 0 732 621" fill="none" xmlns="http://www.w3.org/2000/svg">
<path d="M352.805 268.804C352.711 269.814 352.471 270.405 352.656 270.791C353.117 271.752 353.512 273.525 354.349 273.525C355.185 273.525 355.77 272.764 355.724 272.534C355.52 271.501 355.12 270.476 354.608 269.55C354.422 269.215 353.727 269.164 352.805 268.804ZM321.548 251.41C321.576 255.25 323.119 256.987 327.519 258.491C325.788 255.881 324.723 252.985 321.548 251.41ZM162.946 154.399C160.273 154.485 159.098 156.039 158.597 157.679C157.731 160.508 157.264 163.475 156.827 166.413C156.613 167.854 156.411 169.469 158.046 171.019C160.837 165.725 164.388 161.02 162.946 154.399ZM425.872 102.925C421.234 109.911 418.218 117.131 415.146 124.761C421.705 122.433 427.082 111.44 425.872 102.925ZM315.5 124.503C314.802 119.62 308.566 106.723 305.289 103.39C304.132 111.031 309.484 122.099 315.5 124.503ZM321.277 147.644C314.739 156.404 313.675 164.78 318.051 169.26C318.332 166.79 318.466 164.625 318.862 162.509C319.083 161.331 319.432 159.82 320.269 159.196C321.629 158.184 322.079 157.014 321.991 155.554C321.832 152.912 321.523 150.28 321.277 147.644ZM535.593 361.7C533.09 360.32 530.582 360.507 528.168 360.894C525.304 361.355 524.627 363.333 526.255 365.72C527.424 367.435 528.523 369.201 529.746 370.876C530.481 371.883 531.394 372.76 532.248 373.719C534.882 370.789 535.844 367.256 535.593 361.7ZM195.3 361.913C196.074 365.987 195.837 370.255 199.017 374.115C201.43 370.789 203.617 367.928 205.623 364.945C206.679 363.376 205.904 361.622 203.857 361.101C201.078 360.394 198.253 360.284 195.3 361.913ZM346.153 245.33C345.896 245.525 345.639 245.721 345.382 245.916C346.451 250.292 347.446 254.688 348.64 259.029C348.933 260.094 349.733 261.122 350.542 261.92C352.47 263.824 355.441 263.982 356.78 262.417C359.358 259.404 359.573 255.712 356.595 253.026C353.399 250.143 349.657 247.87 346.153 245.33ZM454.071 100.42C455.484 97.0594 454.941 93.822 453.575 90.5795C450.272 82.7407 448.19 74.5416 446.85 66.1702C445.98 60.7389 446.276 55.2885 447.799 49.9158C448.116 53.8489 448.228 57.8121 448.79 61.71C450.353 72.5461 454.268 82.4515 461.737 90.5739C465.065 94.1935 469.051 97.2181 472.828 100.407C474.811 102.081 476.928 103.617 479.092 105.052C481.542 106.675 484.198 106.751 486.858 105.501C487.439 105.227 488.153 104.927 488.459 104.426C491.33 99.7304 494.718 95.2803 493.231 89.0877C492.069 84.2541 490.118 79.9756 486.75 76.3391C486.4 75.9609 486.12 75.5151 485.827 75.0878C485.776 75.0137 485.82 74.8746 485.818 74.7656C490.166 76.6478 494.676 82.1979 495.786 87.3047C496.781 91.8817 497.89 96.4644 497.383 101.224C497.08 104.064 498.158 106.409 500.286 108.153C502.391 109.878 504.565 111.608 506.955 112.867C509.025 113.958 511.458 114.326 513.65 112.801C515.195 111.726 516.421 111.893 517.785 113.24C518.56 114.005 519.783 114.312 521.116 114.982C518.911 115.605 516.886 116.178 514.428 116.872C519.928 117.961 525.953 116.83 529.901 113.937C531.628 112.671 532.986 112.254 535.187 113.244C540.79 115.765 548.284 112.674 550.907 107.019C551.296 106.182 551.281 104.918 550.962 104.029C548.513 97.2042 546.26 90.2817 543.313 83.673C540.889 78.2356 537.813 73.0502 534.641 67.9949C528.538 58.2643 520.239 50.4937 511.588 43.0948C491.373 25.8064 467.957 15.2947 442.01 10.1591C441.299 10.0185 440.597 9.83295 439.956 9.32428C443.259 9.32428 446.583 9.07178 449.86 9.36444C474.313 11.5504 496.738 18.9622 515.816 35.0944C521.179 39.6295 526.99 43.6308 532.408 48.1036C539.041 53.5784 544.931 59.654 549.155 67.3832C554.208 76.6308 559.874 85.5462 565.391 94.5338C568.139 99.0111 571.961 102.584 575.815 106.103C576.536 106.762 577.634 107.676 577.584 108.405C577.291 112.674 579.238 116.235 580.781 119.946C582.781 124.761 584.775 129.589 588.23 133.583C590.174 135.832 592.313 137.911 594.815 139.729C593.899 137.766 592.846 135.852 592.106 133.824C591.369 131.803 590.139 129.825 590.86 126.927C594.119 127.391 597.692 129.398 600.302 126.114C600.812 126.255 601.185 126.244 601.28 126.401C604.06 131.019 608.387 132.921 613.476 133.967C628.994 137.154 644.699 138.34 660.483 138.822C662.174 138.873 663.875 138.766 665.565 138.65C670.087 138.34 674.196 136.99 677.749 134.019C682.938 129.68 688.513 125.757 693.377 121.085C699.203 115.49 704.151 109.186 707.253 101.449C715.213 81.5898 717.32 61.3069 712.72 40.3654C712.561 39.6429 712.616 38.8734 712.784 38.0798C715.172 42.1874 716.215 46.7503 717.174 51.2854C720.05 64.8923 719.988 78.4962 716.771 92.071C714.851 100.176 713.37 108.405 709.43 115.881C704.703 124.85 698.768 132.724 690.425 138.764C683.695 143.637 677.298 148.983 670.892 154.289C668.767 156.049 666.938 158.226 665.218 160.407C663.221 162.94 664.396 167.618 667.623 170.109C671.107 172.797 675.138 174.428 679.503 174.705C684.165 175.001 688.857 174.826 693.536 174.862C694.042 174.865 694.547 174.908 695.15 175.645C690.457 176.429 685.767 177.231 681.071 177.992C676.082 178.8 671.246 178.398 666.639 176.128C665.955 175.791 665.147 175.672 664.382 175.535C661.995 175.112 660.094 173.975 658.316 172.269C653.156 167.317 647.289 163.571 640.116 162.14C637.334 161.586 634.703 161.37 632.077 163.179C629.313 159.814 625.766 159.661 622.116 160.839C620.392 161.395 618.925 161.355 617.211 160.893C610.668 159.128 606.43 160.7 604.15 167.1C600.857 176.343 600.251 188.595 608.482 196.894C610.725 199.155 613.671 200.738 616.376 202.506C617.44 203.201 618.73 203.549 619.851 204.205C613.588 203.931 608.195 201.571 604.039 196.901C599.293 191.572 595.818 185.458 594.305 178.392C594.011 177.019 594.037 175.525 594.189 174.117C594.728 169.119 593.689 164.451 591.16 160.192C588.564 155.819 584.266 153.653 579.607 152.18C578.993 151.986 578.174 152.441 577.151 152.66C579.381 158.855 581.042 164.903 577.619 171.382C577.352 170.733 577.161 170.506 577.195 170.319C579.02 160.081 573.552 152.726 566.635 146.804C561.477 142.389 554.711 140.816 548.085 144.619C546.062 145.78 544.819 145.797 542.95 144.291C540.156 142.04 536.596 141.332 533.081 140.984C524.933 140.179 516.771 139.525 508.618 138.773C505.25 138.463 501.829 138.346 498.546 137.622C495.021 136.844 492 138.098 488.836 139.118C491.973 139.423 495.156 139.491 498.234 140.097C501.401 140.72 504.478 141.83 507.571 142.801C509.122 143.288 510.286 144.156 510.641 145.974C511.58 150.781 515.565 153.176 518.974 155.882C522.569 158.737 526.787 159.904 531.442 159.101C532.321 158.95 533.294 158.998 534.166 159.203C541.944 161.029 548.665 164.795 554.238 170.701C550.647 169.107 547.137 167.283 543.442 165.987C539.721 164.681 535.831 163.249 531.235 165.641C532.338 167.03 532.993 168.315 534.028 169.086C542.066 175.067 550.801 179.815 560.722 181.53C566.576 182.543 572.633 182.514 578.606 182.658C582.577 182.754 584.919 180.78 586.225 176.589C587.688 171.893 587.949 167.102 586.6 162.298C586.331 161.34 586.106 160.369 585.697 158.757C588.219 161.295 589.099 163.904 589.59 166.582C590.106 169.398 590.271 172.281 590.533 175.14C590.922 179.377 589.936 183.207 586.887 186.303C584.954 188.266 584.997 190.348 585.942 192.765C589.093 200.826 595.123 205.895 602.861 209.091C604.6 209.809 606.667 209.838 608.596 209.96C620.735 210.729 630.351 205.763 638.163 196.763C638.675 196.173 639.206 195.6 639.734 195.024C639.821 194.93 639.939 194.864 640.623 194.343C639.948 195.784 639.636 196.708 639.124 197.502C634.807 204.201 629.441 209.816 622.21 213.376C620.355 214.289 618.348 214.97 616.342 215.487C611.499 216.735 611.482 216.67 609.981 221.736C612.58 224.911 617.024 226.232 621.152 224.614C631.65 220.499 640.303 214.116 645.583 203.809C648.15 198.798 650.325 193.639 651.512 188.101C651.692 187.257 652.084 186.459 652.58 185.694C653.245 190.735 651.869 195.497 650.449 200.152C648.083 207.911 644.802 215.295 639.757 221.751C637.914 224.11 636.003 226.419 634.032 228.671C633.46 229.324 632.635 229.864 631.82 230.175C628.085 231.596 624.979 233.832 622.271 236.778C621.375 237.753 619.906 238.699 618.656 238.759C613.425 239.01 608.872 241.068 604.391 243.468C603.723 243.826 602.999 244.08 602.322 244.373C601.167 251.767 601.772 259.055 602.429 266.297C602.629 268.501 603.967 270.743 605.23 272.674C606.819 275.102 607.048 277.423 605.94 280.24C601.118 276.937 598.255 272.217 595.382 267.471C596.731 274.967 600.266 281.225 606.498 285.559C613.975 290.76 622.087 294.885 630.657 298.005C635.828 299.887 640.972 298.594 645.981 297.191C652.412 295.39 657.017 290.933 661.067 285.884C670.868 273.664 677.219 259.74 681.142 244.639C681.529 243.149 681.894 241.653 682.988 240.28C682.453 243.935 682.115 247.632 681.344 251.236C679.296 260.815 677.049 270.377 672.806 279.257C670.791 283.473 668.077 287.357 665.631 291.361C663.937 294.133 662.21 296.888 660.406 299.589C659.034 301.643 657.665 303.736 656.004 305.544C655.223 306.394 653.8 306.894 652.597 307.07C647.322 307.843 642.585 309.886 638.274 312.929C636.023 314.518 634.09 315.003 631.565 313.187C628.827 311.216 625.687 310.314 622.488 312.646C621.483 313.379 620.41 313.307 619.189 312.749C616.511 311.522 613.729 310.523 610.743 309.334C612.3 312.811 614.713 315.287 618.045 316.968C620.119 318.014 622.686 318.742 624.01 320.421C625.22 321.958 624.922 324.622 625.526 326.72C626.907 331.515 628.721 336.103 632.62 339.52C633.205 340.033 633.755 340.616 634.207 341.248C639.502 348.647 646.989 353.372 654.588 357.914C663.138 363.024 672.151 364.183 681.985 361.914C702.885 357.092 718.592 345.474 729.522 327.132C730.186 326.018 730.887 324.925 732 323.983C731.568 325.123 731.181 326.283 730.697 327.401C723.314 344.432 710.985 356.55 694.508 364.891C683.99 370.216 672.977 372.38 661.362 372.157C660.112 372.133 658.717 371.83 657.655 371.205C650.176 366.806 641.948 364.412 633.687 362.15C630.959 361.403 628.81 360.014 626.635 358.277C621.869 354.472 616.885 350.941 611.954 347.347C609.651 345.668 607.515 346.086 605.166 347.656C591.935 356.501 584.151 369.154 579.531 384.047C575.181 398.074 577.144 411.445 584.186 424.106C586.264 427.843 589.046 431.187 591.839 435.189C590.71 434.432 589.837 434.021 589.182 433.384C580.897 425.318 574.929 416.036 572.377 404.464C570.376 395.391 570.095 386.388 571.077 377.284C571.438 373.946 572.415 370.653 573.355 367.41C573.737 366.09 574.79 364.972 575.499 363.739C577.957 359.467 580.415 355.194 582.82 350.891C583.116 350.361 583.13 349.653 583.19 349.019C583.21 348.814 582.96 348.582 582.57 347.906C581.456 348.746 580.22 349.421 579.318 350.403C574.92 355.187 570.297 359.872 567.452 365.788C565.15 370.575 563.298 375.599 561.546 380.623C560.749 382.909 559.844 384.936 558.002 386.537C550.968 392.653 546.391 400.527 542.6 408.86C541.398 411.503 541.03 414.557 540.486 417.462C540.033 419.882 539.972 422.372 539.578 424.805C538.773 429.78 539.47 434.677 539.918 439.629C540.504 446.101 544.056 450.478 549.037 453.965C554.41 457.726 560.649 459.12 566.991 460.176C579.297 462.226 590.821 459.859 601.825 454.218C608.347 450.874 614.572 447.092 620.245 442.429C620.79 441.981 621.379 441.588 622.325 441.578C621.781 442.234 621.279 442.932 620.687 443.541C607.122 457.503 590.705 465.954 571.458 468.608C562.55 469.836 553.584 469.012 544.682 468.004C543.53 467.874 542.098 467.094 541.457 466.159C539.491 463.289 536.68 461.698 533.608 460.629C531.456 459.88 530.146 458.658 529.076 456.707C528.229 455.167 526.962 453.774 525.632 452.598C519.625 447.281 512.724 446.221 505.27 448.829C501.88 450.016 498.615 451.56 495.406 453.377C499.42 453.979 503.291 451.347 507.333 453.216C507.333 453.732 507.389 454.106 507.324 454.458C506.639 458.187 504.593 460.547 500.871 461.757C497.851 462.74 495.554 464.965 493.691 467.579C490.518 472.03 487.253 476.416 484.139 480.909C478.542 488.984 475.971 498.357 473.113 507.568C466.944 527.458 464.95 547.967 464.532 568.678C464.191 585.572 465.33 602.365 468.223 619.026C468.328 619.63 468.236 620.268 467.61 621C466.036 614.161 464.326 607.351 462.912 600.479C457.081 572.145 455.632 543.505 457.283 514.677C457.649 508.29 458.25 501.913 458.903 495.548C459.055 494.068 459.581 492.465 460.409 491.241C465.404 483.849 469.521 475.981 472.821 467.727C474.154 464.392 474.605 460.689 475.32 457.125C475.794 454.767 474.667 453.139 472.573 452.054C470.353 450.903 468.132 450.049 465.535 450.024C461.384 449.983 457.142 450.105 453.101 449.318C432.274 445.265 417.573 432.782 406.953 414.9C406.724 414.516 406.722 413.998 407.023 413.348C407.822 414.33 408.645 415.294 409.418 416.296C418.267 427.775 429.774 435.783 443.048 441.085C447.005 442.666 451.729 442.737 456.105 442.759C465.417 442.805 474.401 440.53 483.309 437.989C488.982 436.37 494.263 433.843 499.094 430.553C502.182 428.45 505.015 425.841 507.542 423.073C512.269 417.893 517.336 412.864 519.14 405.692C519.331 404.933 519.63 404.199 519.795 403.435C520.401 400.629 519.629 399.838 516.811 400.277C511.754 401.064 507.285 399.755 503.407 396.424C503.257 396.295 503.253 395.994 503.03 395.311C507.81 398.239 512.526 398.629 517.353 396.381C521.332 394.527 525.009 392.203 526.854 388.04C528.939 383.334 528.203 378.526 526.285 373.954C524.37 369.392 521.508 365.592 515.966 363.969C512.804 365.299 509.482 367.202 506.95 370.306C506.62 370.71 506.327 371.175 505.92 371.482C498.355 377.178 495.935 385.588 494.163 394.24C493.208 398.905 492.786 403.68 492.096 408.602C490.665 401.142 491.258 393.854 492.903 386.733C495.107 377.196 498.011 367.897 503.32 359.453C505.055 356.693 506.051 353.133 506.263 349.866C506.39 347.917 504.84 345.073 503.163 343.949C499.23 341.309 497.933 337.452 496.503 333.401C494.331 327.252 490.185 322.377 485.351 317.886C486.025 319.103 486.698 320.321 487.373 321.538C488.069 322.794 488.709 324.086 489.478 325.296C491.019 327.724 491.598 330.304 490.888 333.399C485.436 335.721 483.056 341.021 480.69 345.977C477.957 351.702 476.047 357.836 473.988 363.864C472.599 367.93 470.347 371.319 467.241 374.213C464.475 376.789 461.642 379.304 459.007 382.01C448.78 392.513 436.203 398.792 422.299 402.715C421.46 402.951 420.549 402.93 419.533 402.585C420.422 402.161 421.296 401.704 422.201 401.318C428.936 398.447 435.494 395.347 440.931 390.206C444.422 386.905 448.37 384.093 451.938 380.868C457.294 376.029 460.528 369.72 463.095 363.139C466.52 354.361 468.215 345.136 469.121 335.771C469.484 332.022 469.785 328.267 470.08 324.512C470.382 320.673 470.063 316.845 468.085 313.518C466.837 311.418 466.576 309.335 466.931 307.158C467.39 304.344 468.178 301.582 468.859 298.806C470.47 292.235 470.471 285.685 468.635 279.158C468.55 278.858 468.234 278.624 467.746 278.003C467.698 282.724 466.992 286.857 463.598 290.415C461.036 286.369 459.205 282.083 454.848 280.092C455.412 275.151 453.646 271.015 451.053 267.17C449.559 264.954 447.503 263.493 444.903 262.599C439.24 260.648 433.643 258.498 428.044 256.365C426.839 255.906 425.554 255.378 424.618 254.534C420.265 250.609 415.742 246.816 411.808 242.493C406.844 237.039 405.489 230.087 405.527 222.779C406.109 224.42 406.7 226.057 407.272 227.701C411.185 238.941 418.976 246.154 430.435 248.84C434.489 249.791 438.987 249.384 443.206 248.914C446.925 248.501 448.332 246.374 447.847 241.697C447.493 238.274 445.989 235.188 443.505 232.721C441.327 230.556 440.007 228.04 439.072 225.073C438.23 222.403 436.857 219.662 434.991 217.619C432.823 215.247 431.679 212.497 431.106 209.655C429.488 201.635 428.077 193.557 427.035 185.444C426.282 179.577 427.179 173.709 428.716 167.984C428.876 167.387 429.174 166.827 429.947 166.334C429.947 167.018 429.996 167.705 429.939 168.383C429.002 179.559 431.193 190.106 435.725 200.342C440.939 212.121 448.432 222.113 458.074 230.529C459.5 231.773 461.299 232.656 463.041 233.456C467.588 235.542 471.818 238.766 477.309 237.735C477.676 237.666 478.18 237.665 478.453 237.863C482.995 241.174 488.609 240.668 493.652 242.179C495.396 242.702 497.177 243.149 498.971 243.454C511.889 245.651 519.217 254.365 524.465 265.441C526.133 268.959 527.202 272.7 527.356 276.707C526.752 275.433 526.127 274.168 525.545 272.884C521.169 263.227 514.062 256.529 504.039 253.036C502.576 252.526 501.006 252.067 499.479 252.044C490.606 251.91 484.993 261.63 489.323 269.507C496.845 283.191 506.234 295.552 516.132 307.557C519.205 311.284 522.218 315.062 525.222 318.846C526.251 320.142 527.31 321.481 526.793 323.935C524.24 322.514 521.937 321.383 519.797 319.999C517.784 318.697 515.942 317.127 513.844 315.931C518.805 322.833 524.803 328.238 533.553 329.821C538.432 330.704 542.718 329.558 546.875 326.891C554.809 321.8 562.262 316.188 568.17 308.751C568.826 307.926 569.302 306.708 569.319 305.663C569.401 300.456 569.309 295.247 569.264 290.038C569.239 287.052 568.185 284.804 565.129 283.719C560.849 282.199 556.61 280.563 552.391 278.882C550.351 278.069 548.076 277.419 546.462 276.042C539.235 269.876 533.243 262.7 529.721 253.711C529.543 253.258 529.53 252.74 529.267 251.312C530.387 252.79 530.91 253.575 531.526 254.278C535.039 258.293 538.329 262.55 542.194 266.192C544.486 268.351 547.608 269.719 550.514 271.112C557.776 274.593 567.238 268.72 566.384 259.028C566.021 254.911 565.043 250.803 563.878 246.829C563.483 245.484 561.654 244.561 560.286 243.26C562.573 239.836 562.78 235.767 562.138 231.559C561.682 228.566 562.4 227.592 565.461 227.277C568.775 226.936 572.002 227.366 574.84 229.236C577.172 230.772 579.376 232.502 582.241 234.585C581.76 233.444 581.614 232.864 581.302 232.394C577.403 226.525 571.897 222.718 565.415 220.285C563.744 219.657 561.878 219.393 560.083 219.285C556.843 219.089 554.061 218.051 551.471 216.041C548.2 213.502 545.322 210.332 541.171 209.08C540.55 208.893 539.97 208.566 539.348 208.384C536.303 207.496 535.125 208.233 534.978 211.344C534.601 219.342 530.34 225.458 524.579 230.147C519.571 234.224 513.118 235.434 506.456 234.746C507.869 234.34 509.295 233.976 510.689 233.515C512.049 233.066 513.395 232.566 514.714 232.008C528.582 226.144 529.242 214.826 522.502 203.785C519.612 199.051 515.362 195.596 510.329 193.104C507.203 191.557 504.25 189.66 500.772 187.662C499.094 189.882 497.506 191.734 496.201 193.768C494.132 196.993 491.619 199.611 488.138 201.154C487.952 200.961 487.765 200.768 487.579 200.574C488.527 199.763 489.695 199.103 490.377 198.108C491.761 196.089 493.485 194.02 493.977 191.736C494.846 187.694 493.86 183.85 489.906 181.569C486.298 179.489 482.765 177.065 478.878 175.738C473.725 173.978 471.314 170.15 469.212 165.715C468.382 163.965 467.614 162.094 466.387 160.645C464.571 158.5 462.276 157.117 459.177 158.118C452.781 160.185 446.559 159.23 440.462 156.8C439.768 156.523 439.118 156.135 438.592 155.269C440.035 155.489 441.472 155.758 442.921 155.919C447.856 156.469 450.504 155.068 452.828 150.738C456.979 143.004 455.341 133.424 448.852 127.484C446.164 125.023 444.182 125.036 441.857 127.643C439.866 129.874 437.914 132.143 436.025 134.462C432.936 138.252 432.945 138.336 433.43 142.895C427.001 146.737 426.122 149.348 429.393 155.619C428.791 156.116 428.207 156.798 427.469 157.172C425.206 158.32 423.253 159.82 421.998 162.034C418.98 167.358 416.009 172.71 413.105 178.097C412.371 179.46 411.859 180.968 411.423 182.461C410.074 187.08 410.67 189.595 413.981 193.304C413.33 193.698 412.753 194.125 412.115 194.419C409.328 195.707 407.583 197.942 406.659 200.76C405.122 205.451 403.619 210.16 402.347 214.928C400.875 220.445 399.364 225.983 398.449 231.607C397.794 235.637 396.682 239.617 396.895 243.828C397.198 249.812 400.059 254.493 403.71 258.835C405.518 260.987 408.099 261.543 410.821 261.38C412.499 261.28 414.172 261.091 416.445 260.888C414.598 262.947 412.561 263.368 410.661 263.386C406.249 263.428 401.794 263.42 397.437 262.83C395.124 262.516 393.664 262.892 392.448 264.716C391.101 266.74 389.513 268.574 389.66 271.346C389.73 272.677 388.742 274.032 388.441 275.422C387.775 278.501 388.235 279.628 390.925 281.98C390.416 282.385 389.996 282.931 389.454 283.117C386.405 284.165 385.293 286.259 385.405 289.442C385.57 294.141 385.415 298.85 385.448 303.555C385.456 304.589 385.516 305.675 385.83 306.646C388.437 314.715 390.866 322.853 393.832 330.789C396.6 338.19 400.822 344.798 406.594 350.31C406.915 350.616 407.168 350.993 407.276 351.512C403.217 349.557 399.929 346.651 397.087 343.278C387.383 331.758 380.26 318.912 377.058 304.026C376.132 299.719 374.963 295.434 373.492 291.286C372.279 287.865 371.334 287.267 367.906 286.248C368.721 287.29 369.54 288.328 370.351 289.374C371.285 290.582 371.456 291.602 370.761 293.25C368.996 297.434 367.854 301.806 370.538 306.186C371.49 307.739 372.06 309.534 373.062 311.048C377.611 317.924 379.143 325.726 379.851 333.7C380.762 343.977 381.671 354.274 381.977 364.58C382.404 378.921 380.481 392.995 375.33 406.493C374.41 408.905 373.256 411.228 371.603 413.439C371.635 412.931 371.573 412.395 371.714 411.92C374.069 403.974 375.072 395.838 375.315 387.572C375.752 372.744 374.884 357.989 371.233 343.609C368.185 331.602 364.388 319.796 357.9 309.025C354.353 303.137 349.29 299.775 342.883 298.042C337.581 296.608 332.681 298.724 330.029 303.598C329.666 304.265 329.397 304.983 328.943 305.99C328.72 302.793 328.759 301.785 330.645 299.847C332.714 297.722 335.067 295.811 337.525 294.145C340.688 292.001 341.005 290.637 338.04 288.287C336.756 287.269 335.055 286.79 333.576 286.005C331.758 285.042 329.628 284.354 328.255 282.94C326.068 280.689 323.463 279.517 320.668 278.431C317.171 277.072 313.605 275.787 310.325 273.998C306.528 271.926 304.295 268.034 303.692 262.961C304.483 264.117 305.269 265.276 306.064 266.429C308.881 270.514 312.683 272.682 317.712 272.157C318.95 272.028 320.261 271.559 321.312 270.888C324.55 268.821 325.245 266.047 323.099 262.877C319.407 257.424 314.286 253.301 309.409 248.997C308.45 248.15 306.724 248.175 305.352 247.8C301.727 246.808 298.075 245.903 294.482 244.804C290.065 243.452 287.214 240.056 285.358 236.187C283.344 231.989 282.172 227.384 280.692 222.936C280.503 222.366 280.666 221.678 280.666 220.183C281.551 222.077 281.993 223.274 282.636 224.352C284.435 227.366 285.965 230.638 288.235 233.255C293.531 239.361 302.579 238.484 306.942 231.691C307.482 230.851 308.016 229.75 307.943 228.817C307.639 224.93 307.666 220.883 306.514 217.23C304.915 212.159 302.672 207.122 295.977 205.928C296.889 205.194 297.252 204.843 297.669 204.576C301.177 202.331 302.233 199.072 301.642 195.098C301.023 190.946 300.011 186.932 298.009 183.191C295.318 178.162 292.808 173.033 290.045 168.044C288.919 166.01 287.247 164.289 285.98 162.323C283.847 159.015 282.313 155.468 282.571 151.307C283.093 152.419 283.496 153.607 284.163 154.623C285.224 156.243 286.285 157.934 287.669 159.255C289.275 160.787 291.383 162.314 293.63 161.074C295.833 159.858 297.281 157.699 297.033 154.913C296.813 152.452 296.536 149.993 296.169 147.55C295.767 144.874 295.233 142.217 294.681 139.129C290.478 141.621 286.246 142.533 281.957 143.495C279.32 144.086 277.414 146.746 277.095 149.556C276.779 152.339 274.994 154.249 273.947 156.575C273.66 157.211 272.444 157.851 271.762 157.751C271.217 157.671 270.658 156.526 270.419 155.756C269.961 154.283 269.726 152.74 269.312 150.826C267.151 156.199 267.04 161.545 266.797 166.728C266.487 173.348 267.077 180.013 267.362 186.655C267.416 187.929 267.633 189.289 268.159 190.431C269.628 193.622 271.734 194.509 275.058 193.334C277.973 192.304 280.807 191.044 283.943 190.158C283.261 190.781 282.658 191.531 281.885 192.004C278.04 194.36 274.628 197.471 269.929 198.32C267.439 198.77 265.115 199 262.637 198.237C259.353 197.227 256.141 197.024 252.782 198.685C250.056 200.033 248.118 201.47 248.514 204.426C235.726 212.405 223.699 220.753 213.123 231.215C217.633 228.592 222.144 225.969 227.008 223.14C227.41 224.741 227.742 226.058 228.072 227.376C229.643 233.649 234.292 237.003 239.918 238.766C243.87 240.003 247.607 238.301 250.537 235.285C253.566 232.166 254.173 228.43 252.872 224.428C252.17 222.271 251.028 220.257 249.866 217.697C255.951 222.426 258.522 230.824 256.014 237.284C255.029 239.821 253.635 242.216 252.263 244.579C251.082 246.612 250.314 248.622 251.556 250.839C252.571 252.65 252.825 255.056 255.656 255.469C256.63 255.611 257.579 256.764 258.304 257.648C263.436 263.906 269.075 269.647 275.359 274.742C276.471 275.644 277.715 276.379 278.859 277.242C281.089 278.923 283.454 278.973 285.825 277.716C287.772 276.683 289.717 275.594 291.485 274.287C295.95 270.987 297.888 265.092 296.48 259.665C294.904 253.594 292.423 247.989 288.11 243.235C290.655 244.174 292.515 245.926 294.07 247.956C299.036 254.438 301.482 261.964 302.482 269.939C303.087 274.768 301.665 279.327 298.765 283.216C296.805 285.845 297.184 288.377 298.535 290.826C301.18 295.619 304.927 299.339 309.93 301.764C311.664 302.604 313.212 303.842 314.805 304.957C315.765 305.629 316.636 306.426 317.567 307.143C327.133 314.511 337.889 316.744 349.661 314.611C349.863 314.574 350.096 314.706 350.526 314.811C348.274 316.582 345.713 317.101 343.166 317.467C338.207 318.18 333.303 317.806 328.438 316.516C324.353 315.432 320.253 314.268 315.937 314.458C322.419 317.33 329.544 318.627 334.648 324.215C336.8 326.57 339.804 328.12 342.263 330.221C350.016 336.849 356.593 344.564 362.386 352.923C369.811 363.636 371.809 375.654 370.314 388.41C370.307 388.467 370.15 388.505 369.715 388.74C369.492 387.418 369.211 386.203 369.09 384.972C368.113 374.989 364.744 365.954 358.728 357.888C352.676 349.774 345.774 342.472 337.684 336.43C334.172 333.807 330.108 331.879 326.16 329.906C323.63 328.642 319.288 330.13 317.623 332.905C315.406 336.6 311.11 338.521 309.59 342.819C309.276 343.706 307.824 344.324 306.776 344.796C297.261 349.077 287.698 349.588 278.116 344.982C277.766 344.813 277.428 344.612 277.106 344.394C276.896 344.253 276.724 344.053 276.745 344.072C281.369 344.362 286.18 344.935 290.987 344.897C297.694 344.844 302.594 341.629 305.53 335.456C306.338 333.756 306.59 332.148 305.484 330.672C303.702 328.296 302.024 325.693 299.759 323.859C295.272 320.227 290.228 317.494 284.316 316.796C282.599 316.593 282.612 316.49 279.831 312.897C282.779 313.112 285.448 313.307 288.117 313.502L288.274 312.966C287.4 312.631 286.553 312.163 285.648 311.983C282.073 311.269 278.504 310.436 274.89 310.036C269.061 309.391 266.434 311.003 264.287 316.458C262.512 320.963 261.177 325.614 261.861 330.565C262.892 338.032 263.482 345.602 265.131 352.931C267.14 361.862 270.326 370.527 276.447 377.585C279.579 381.197 283.379 384.23 286.909 387.489C287.671 388.193 288.647 388.668 289.395 389.384C296.054 395.75 304.176 399.519 312.666 402.65C313.143 402.826 313.591 403.08 313.927 403.804C311.36 403.184 308.749 402.704 306.232 401.919C292.286 397.569 279.919 390.632 270.029 379.626C268.469 377.89 266.635 376.385 264.845 374.872C261.268 371.85 258.813 368.134 257.276 363.696C255.234 357.798 252.986 351.972 250.83 346.114C250.785 345.993 250.823 345.819 250.749 345.735C247.322 341.898 247.571 337.235 247.529 332.522C247.496 328.704 246.318 324.956 243.957 321.954C242.411 319.987 241.775 318.02 242.316 315.832C243.814 309.777 241.865 304.265 240.022 298.705C239.694 297.715 239.18 296.762 239.012 295.749C238.123 290.369 235.477 285.729 232.813 281.134C231.589 279.023 229.939 277.121 228.258 275.337C227.689 274.734 226.353 274.434 225.498 274.614C223.651 275.002 223.016 274.496 222.569 272.637C221.071 266.413 216.994 263.57 210.646 263.944C208.612 264.064 206.874 264.695 205.388 266.167C202.642 268.888 199.158 270.292 194.809 271.841C197.403 269.56 199.397 267.835 201.358 266.074C203.225 264.396 204.004 262.274 203.922 259.766C203.859 257.822 203.243 256.232 201.652 255.017C200.786 254.356 200.055 253.517 199.183 252.681C201.329 250.225 203.953 251.542 206.541 250.641C205.595 250.122 204.966 249.605 204.25 249.411C199.858 248.224 195.449 248.168 191.239 250.009C189.754 250.659 188.538 251.958 187.255 253.029C185.747 254.288 185.594 255.821 186.349 257.611C188.258 262.14 186.988 266.534 185.51 270.923C185.399 268.946 185.476 266.937 185.141 264.999C184.054 258.722 178.918 255.886 173.699 257.763C171.278 258.634 168.941 259.735 166.551 260.693C165.334 261.181 164.083 261.583 162.516 262.142C163.632 256.878 163.869 256.544 172.13 248.156C164.1 250.646 158.1 257.184 158.208 263.508C158.278 267.551 158.027 271.598 158.075 275.642C158.121 279.56 158.528 283.477 158.468 287.39C158.421 290.427 159.215 293.033 161.032 295.405C162.536 297.367 163.995 299.363 165.687 301.629C162.457 304.716 161.849 308.801 161.398 313.692C158.864 310.884 157.213 308.289 155.784 305.569C154.404 302.942 153.219 300.213 151.735 297.63C153.107 307.144 156.844 315.539 163.257 322.776C168.381 328.559 174.503 332.701 181.75 335.345C186.87 337.214 192.047 339.068 196.884 341.547C206.808 346.633 217.378 350.565 226.039 357.99C228.967 360.499 230.749 363.636 232.073 366.945C235.464 375.423 238.797 384 239.466 393.23C239.814 398.021 239.527 402.858 239.233 407.723C238.723 404.042 238.354 400.334 237.663 396.688C237.032 393.362 236.071 390.099 235.221 386.817C233.741 381.109 230.833 376.398 226.416 372.35C223.254 369.452 220.446 366.224 216.452 364.418C215.987 364.207 215.502 364.044 215.239 363.941C209.896 365.641 206.897 369.461 204.925 374.16C203.112 378.48 202.43 383.009 204.25 387.501C206.147 392.181 210.137 394.665 214.527 396.602C218.967 398.561 223.357 398.097 227.739 396.138C224.138 399.789 219.741 400.908 214.93 400.377C211.465 399.995 210.783 400.472 211.689 403.757C212.942 408.303 214.477 412.707 217.907 416.225C220.085 418.459 221.94 421.005 223.999 423.359C231.704 432.165 241.907 436.367 252.877 439.331C260.34 441.347 267.893 442.531 275.582 442.842C281.372 443.076 286.877 442.072 292.236 439.491C304.828 433.43 315.553 425.206 323.791 413.836C324.069 413.453 324.436 413.135 325.168 413.009C324.835 413.785 324.578 414.605 324.158 415.33C315.313 430.597 302.659 441.365 286.146 447.548C279.67 449.972 272.887 450.1 266.112 450.03C263.233 450 260.772 450.932 258.358 452.304C256.709 453.241 255.773 454.606 256.09 456.477C256.697 460.059 256.972 463.81 258.281 467.136C261.584 475.526 265.731 483.526 270.8 491.03C271.773 492.47 272.387 494.344 272.592 496.085C274.181 509.6 274.586 523.176 274.605 536.779C274.642 563.432 271.664 589.701 265.005 615.526C264.711 616.664 264.403 617.797 264.06 618.92C264.005 619.1 263.728 619.212 263.199 619.648C263.554 616.89 263.832 614.454 264.186 612.028C267.217 591.237 267.383 570.384 265.827 549.461C264.373 529.906 260.101 511.043 253.244 492.683C250.402 485.074 245.635 478.767 241.129 472.235C239.724 470.199 238.213 468.231 236.662 466.303C234.471 463.578 231.521 461.871 228.305 460.726C226.222 459.985 224.998 458.908 224.845 456.594C224.78 455.62 224.173 454.683 223.795 453.683C225.687 451.902 227.801 452.586 229.784 452.859C231.816 453.138 233.814 453.667 235.826 454.086C235.933 453.849 236.039 453.612 236.146 453.375C234.065 452.287 232.074 450.938 229.88 450.172C226.823 449.105 223.651 448.265 220.463 447.7C213.9 446.536 205.336 450.972 202.135 456.932C201.327 458.436 200.409 459.725 198.588 460.326C195.094 461.479 191.899 463.126 189.717 466.37C189.153 467.208 187.827 467.88 186.782 467.992C174.355 469.322 161.969 469.974 149.673 466.618C134.576 462.497 121.659 454.804 110.753 443.626C110.389 443.254 110.041 442.861 109.732 442.443C109.611 442.28 109.617 442.023 109.443 441.3C110.741 442.262 111.731 442.988 112.712 443.725C122.394 450.989 132.704 457.065 144.649 459.714C155.934 462.218 166.949 460.78 177.614 456.537C181.674 454.922 185.109 452.356 187.811 448.846C189.855 446.192 190.779 443.236 191.411 439.92C193.04 431.377 191.533 423.008 190.54 414.628C190.216 411.89 188.719 409.258 187.578 406.657C184.569 399.801 180.775 393.342 175.154 388.387C171.588 385.242 169.779 381.442 168.68 377.154C166.347 368.053 161.268 360.6 155.079 353.808C153.204 351.75 151.705 349.157 148.574 348.178C147.638 350.468 148.811 352.369 149.764 354.025C151.835 357.623 154.256 361.019 156.533 364.499C158.813 367.983 159.498 372.03 160.04 375.985C161.378 385.743 161.018 395.391 158.749 405.118C155.792 417.79 149.018 427.686 139.202 435.798C139.042 435.93 138.766 435.92 138.058 436.099C139.166 434.867 140.028 433.96 140.834 433.006C153.338 418.21 157.189 401.502 151.405 382.904C147.025 368.821 139.406 356.935 127.139 348.261C123.836 345.925 121.053 345.752 117.965 348.09C113.401 351.546 108.762 354.913 104.358 358.564C102.401 360.186 100.388 361.324 97.9795 362.08C91.4145 364.138 84.9084 366.385 78.381 368.565C78.1366 368.646 77.8875 368.762 77.6866 368.921C71.5809 373.729 64.567 372.708 57.8398 371.459C31.1688 366.505 11.6634 352.043 0.426642 326.979C0.116689 326.288 -0.115914 325.562 0.0614686 324.561C0.706182 325.508 1.39143 326.429 1.98893 327.405C5.75852 333.562 10.2128 339.163 15.342 344.242C25.2504 354.055 37.537 359.074 50.8319 362.159C56.1401 363.39 61.4869 363.804 66.6697 362.149C70.7188 360.855 74.7317 359.147 78.3847 356.985C82.9556 354.28 87.1746 350.967 91.47 347.812C92.4932 347.06 93.2408 345.919 94.072 344.92C96.8941 341.53 99.9419 338.293 102.44 334.676C105.055 330.89 106.41 326.466 106.81 321.854C106.932 320.45 107.496 319.736 108.661 319.198C110.549 318.326 112.47 317.495 114.26 316.446C116.857 314.922 118.948 312.864 120.379 309.591C117.477 310.685 114.941 311.501 112.534 312.6C111.083 313.263 109.829 313.393 108.535 312.492C105.44 310.338 102.432 311.288 99.8027 313.156C97.4911 314.799 95.6266 314.728 93.4268 313.168C88.9036 309.962 83.9663 307.71 78.3887 307.069C76.7618 306.882 75.5666 306.154 74.6268 304.673C69.1888 296.104 62.409 288.331 58.3772 278.94C52.9461 266.291 49.4609 253.064 48.6889 239.193C49.0784 240.58 49.5017 241.959 49.8519 243.356C53.6124 258.353 59.6712 272.288 69.2395 284.506C71.7135 287.665 74.4777 290.816 77.7154 293.111C85.7929 298.836 94.5124 300.77 104.164 296.623C111.106 293.64 117.805 290.254 124.076 286.105C130.756 281.687 134.593 275.236 135.986 267.322C133.19 272.178 130.192 276.84 125.293 280.376C124.417 277.465 124.464 275.02 126.214 272.59C128.074 270.008 129.202 267.061 129.227 263.826C129.275 257.448 129.241 251.07 129.241 244.513C123.886 241.995 118.771 238.953 112.545 238.74C111.215 238.694 109.672 237.507 108.678 236.429C106.143 233.681 103.208 231.658 99.7699 230.261C98.8387 229.882 97.8952 229.303 97.2126 228.575C87.3061 218.016 81.3157 205.484 78.7958 191.269C78.4951 189.572 78.7549 187.776 78.7549 185.817C80.6389 190.939 82.2541 195.862 84.241 200.629C89.2755 212.707 98.6477 220.181 110.541 224.784C112.583 225.575 115.137 225.351 116.908 226.467C121.602 229.424 124.94 227.124 128.249 224.208C131.292 221.526 133.977 218.557 135.465 214.657C136.989 210.663 136.29 206.739 135.071 202.902C134.234 200.267 132.119 198.796 129.551 197.746C124.039 195.492 119.877 191.705 117.464 186.151C117.311 185.799 117.218 185.416 117.135 185.04C117.114 184.942 117.235 184.813 117.368 184.539C118.815 186.192 120.121 187.902 121.647 189.384C124.936 192.578 128.911 193.936 133.468 193.172C136.247 192.706 136.875 191.763 135.952 189.119C135.217 187.017 134.064 185.062 132.94 182.713C133.292 180.905 134.016 178.552 134.12 176.172C134.189 174.607 133.488 172.955 132.906 171.428C132.127 169.386 131.291 167.332 130.186 165.457C128.681 162.9 126.315 161.001 123.44 160.601C120.542 160.199 117.48 160.375 114.576 160.839C112.61 161.153 110.897 161.383 108.905 160.769C105.542 159.732 102.172 159.752 99.5266 162.978C93.8453 160.247 88.5123 162.235 83.5707 164.841C79.6992 166.883 76.3385 169.896 72.7453 172.47C71.5961 173.293 70.5278 174.537 69.2523 174.82C64.8284 175.804 60.8345 178.446 56.1161 178.24C54.1854 178.156 52.2318 178.235 50.3278 177.964C45.7257 177.307 41.1465 176.489 36.5583 175.735C36.5855 175.453 36.613 175.172 36.6402 174.89C37.6741 174.963 38.7077 175.043 39.7422 175.109C46.9671 175.573 54.0851 175.337 60.7587 172.009C63.2826 170.75 65.2768 169.084 66.3579 166.33C67.5763 163.228 67.1042 161.122 64.3416 158.982C63.9351 158.667 63.437 158.368 63.21 157.939C60.3492 152.542 55.1785 149.545 50.6591 145.918C45.7892 142.01 40.4621 138.653 35.7554 134.568C32.5516 131.788 29.8421 128.339 27.3144 124.893C21.6104 117.116 17.9844 108.368 16.1686 98.8866C14.92 92.3658 13.3652 85.8765 12.597 79.2969C10.9472 65.1638 13.0659 51.4341 18.074 38.1413C18.246 37.6845 18.528 37.2693 19.1871 36.9523C18.8931 38.5817 18.6411 40.2202 18.2986 41.8391C13.645 63.8492 16.6405 84.9681 25.8119 105.313C28.5292 111.341 32.9552 116.249 37.5874 120.81C44.8393 127.952 53.0347 133.97 61.6499 139.379C65.4085 141.738 69.6324 142.815 74.0008 142.132C89.7084 139.677 105.387 137.033 121.076 134.46C125.575 133.723 129.25 131.839 130.924 126.823C134.107 129.264 137.152 127.447 140.573 126.863C141.024 131.285 138.659 134.698 137.919 138.803C138.857 138.037 139.895 137.364 140.715 136.487C145.322 131.567 148.316 125.712 150.755 119.468C152.175 115.832 154.055 112.4 153.788 108.309C153.753 107.777 154.19 107.016 154.644 106.68C163.083 100.44 167.844 91.4675 172.839 82.5967C176.093 76.8192 179.879 71.3433 183.426 65.731C183.911 64.9626 184.438 64.2145 184.857 63.4102C186.739 59.7919 189.078 56.62 192.331 54.0278C201.282 46.8961 210.034 39.513 218.972 32.366C232.508 21.5429 248.095 15.0948 264.941 11.7855C272.331 10.3339 279.922 9.90472 287.426 9.04724C288.423 8.93311 289.445 9.03137 290.585 9.7771C289.299 10.0997 288.021 10.4691 286.724 10.7377C254.254 17.4598 226.936 33.2076 204.577 57.7047C198.453 64.4152 193.555 71.9135 189.847 80.1793C186.989 86.5518 184.184 92.9578 181.664 99.469C179.795 104.297 178.133 109.247 176.91 114.273C175.73 119.128 174.961 124.133 175.848 129.872C178.097 126.72 178.401 122.952 181.946 120.924C182.508 121.786 183.143 122.538 183.534 123.401C185.135 126.934 186.997 129.896 191.325 130.824C193.623 131.317 195.614 133.188 197.782 134.365C202.823 137.101 208.09 138.388 213.899 137.397C220.518 136.268 226.82 134.342 232.721 131.121C233.354 130.775 234.037 130.52 234.868 130.53C231.292 133.983 227.273 136.773 222.741 138.696C219.269 140.169 215.718 141.581 212.068 142.462C209.486 143.085 206.637 143.138 203.982 142.818C194.331 141.655 186.837 144.658 182.122 153.479C177.778 161.607 173.407 169.736 170.508 178.525C169.789 180.706 169.283 183.123 169.421 185.385C169.648 189.099 170.482 192.775 171.179 197.23C178.5 191.249 185.923 192.183 193.46 195.178C191.68 195.092 189.901 194.95 188.12 194.929C180.715 194.842 175.212 199.405 172.96 206.475C171.037 212.51 170.973 218.4 172.164 224.4C174.045 225.508 175.649 224.893 177.092 223.996C182.083 220.894 186.91 217.551 190.522 212.803C192.32 210.442 194.242 208.865 197.456 209.926C198.379 210.23 199.486 209.973 201.082 209.973C199.547 211.63 198.293 212.984 196.876 214.513C204.463 212.219 207.702 207.039 207.86 197.147C208.374 197.263 208.914 197.266 209.326 197.498C211.852 198.925 214.25 198.38 216.812 197.422C223.524 194.915 228.864 190.24 234.689 186.339C239.016 183.441 243.308 180.442 246.501 176.208C248.305 173.816 249.802 171.256 250.041 167.647C247.537 170.074 245.355 172.19 242.882 174.586C242.041 172.177 241.344 170.183 240.528 167.849C246.073 164.604 244.803 158.657 245.595 153.56C245.923 151.449 244.793 149.111 244.23 146.421C247.294 144.271 248.025 140.346 248.373 136.263C248.44 135.483 248.268 134.65 248.478 133.92C250.701 126.183 246.527 120.568 241.438 116.177C233.934 109.703 232.113 102.163 234.417 93.0158C234.958 90.8692 235.173 88.6355 235.779 86.5111C237.177 81.6141 241.144 76.9045 246.535 74.1365C245.752 75.0244 244.983 75.9251 244.184 76.7981C240.129 81.2271 238.137 86.51 237.834 92.4478C237.706 94.9475 237.835 97.4184 239.967 99.2856C240.516 99.7662 240.865 100.541 241.154 101.244C243.232 106.301 247.833 107.977 252.444 104.912C256.335 102.327 259.977 99.3372 263.574 96.3404C277.745 84.5367 283.442 69.0297 283.106 50.9374C283.093 50.2844 283.057 49.632 283.045 48.9793C283.043 48.8537 283.101 48.7269 283.209 48.2816C284.884 52.4163 284.889 56.5224 284.818 60.5614C284.759 63.9383 284.523 67.4026 283.693 70.6564C282.026 77.194 281.042 83.9743 277.929 90.0642C276.678 92.5115 276.362 95.0397 276.592 97.6295C276.743 99.3281 276.365 100.631 275.396 101.984C272.355 106.227 272.426 110.994 273.549 115.782C273.82 116.935 274.811 118.463 275.808 118.792C278.205 119.582 278.357 121.387 278.796 123.303C280.184 129.37 284.194 133.259 289.599 135.855C290.465 136.271 291.576 136.176 292.462 136.301C292.731 135.843 293.008 135.523 292.952 135.445C290.558 132.139 291.904 128.042 290.624 124.503C289.296 120.83 288.127 117.095 286.678 113.471C285.697 111.019 286.463 108.814 287.352 106.724C290.281 99.8432 292.209 92.7277 292.918 85.2858C293.041 83.9897 293.347 82.5381 292.928 81.3941C291.374 77.1549 293.293 73.4602 294.474 69.6695C295.789 65.4493 297.352 61.3074 298.758 57.1147C303.277 43.6295 309.788 31.3147 319.363 20.6654C324.958 14.4424 330.529 8.23352 337.169 3.09332C338.705 1.90387 340.282 0.766296 342.229 0C341.775 0.496094 341.355 1.02826 340.863 1.48346C327.55 13.7939 318.661 28.9529 311.829 45.6101C307.233 56.8143 305.514 68.4341 305.332 80.337C305.273 84.1608 306.34 88.0851 307.381 91.8267C310.579 103.314 314.759 114.388 322.201 123.927C322.442 124.236 322.666 124.558 322.907 124.867C327.918 131.279 335.772 130.933 340.499 124.31C347.721 114.191 350.109 103.053 348.116 90.8668C347.971 89.9789 347.937 89.0728 348.113 88.1122C349.802 91.228 350.488 94.6714 350.88 98.1034C352.388 111.333 349.164 123.195 340.22 133.272C339.448 134.142 338.514 134.865 337.705 135.706C334.86 138.665 332.963 142.003 331.949 146.136C330.094 153.699 330.574 161.222 331.747 168.674C332.796 175.344 334.541 181.928 336.354 188.445C337.85 193.82 340.191 196.295 344.894 198.776C344.726 199.204 344.678 199.8 344.356 200.079C341.287 202.738 341.496 206.279 341.699 209.805C341.886 213.056 342.001 216.322 342.429 219.545C342.803 222.361 343.553 225.129 344.174 227.911C344.313 228.536 344.748 229.114 344.802 229.735C345.221 234.564 348.209 237.734 351.745 240.498C355.491 243.426 359.671 245.7 364.458 245.965C370.427 246.296 375.4 248.052 378.6 253.547C378.455 250.364 376.626 248.167 374.634 246.077C374.008 245.42 373.167 244.958 372.587 244.269C371.65 243.154 371.222 242.015 371.636 240.349C374.431 229.113 377.199 217.865 379.674 206.555C380.741 201.682 379.263 196.946 377.218 192.508C376.608 191.186 375.33 190.173 374.382 189.047C376.098 186.708 377.913 184.236 380.055 181.316C381.156 184.742 382.166 187.885 383.176 191.029C383.686 184.714 382.516 178.839 379.433 173.408C378.918 172.502 378.305 171.651 377.791 170.744C376.014 167.611 376.042 167.621 378.231 164.777C380.302 162.086 380.343 158.901 379.999 155.778C379.759 153.599 379.222 151.368 378.355 149.361C375.633 143.059 376.242 136.619 377.203 130.143C377.502 128.127 378.048 126.148 378.481 124.151C378.736 124.169 378.992 124.188 379.247 124.205C379.247 128.02 379.077 131.844 379.305 135.645C379.467 138.346 379.895 141.102 380.721 143.666C381.292 145.439 382.398 147.424 383.867 148.448C387.992 151.324 389.639 155.331 390.314 160.02C390.494 161.271 390.832 162.5 391.264 164.519C392.507 162.795 393.597 161.682 394.213 160.35C395.687 157.161 396.735 153.763 398.335 150.646C400.117 147.172 399.346 144.006 397.62 141.015C396.401 138.9 394.777 136.943 393.033 135.222C386.011 128.296 381.939 120.007 380.537 110.226C379.512 103.081 380.314 96.2281 382.954 89.3799C383.011 90.0115 383.115 90.6433 383.112 91.2747C383.11 91.9252 383.033 92.5799 382.939 93.2256C381.236 104.993 384.462 115.436 391.3 124.959C393.669 128.258 396.79 129.368 400.754 129.273C405.574 129.157 409.064 128.209 411.592 123.102C417.816 110.527 423.106 97.6851 425.543 83.8566C426.293 79.6022 425.971 75.0423 425.467 70.7007C422.382 44.1379 410.53 21.862 391.971 2.94708C391.426 2.39111 390.902 1.81354 390.582 0.850525C391.266 1.20203 392.023 1.45746 392.621 1.91882C403.25 10.1056 412.295 19.8212 419.84 30.8896C426.123 40.1044 430.847 50.0624 433.583 60.9691C434.656 65.2451 436.566 69.3073 438.044 73.485C438.872 75.8254 439.078 78.126 438.641 80.7042C438.171 83.4755 438.275 86.5157 438.894 89.2653C440.12 94.7083 441.819 100.049 443.436 105.397C444.019 107.325 445.215 108.836 447.296 109.495C450.14 110.397 452.356 109.191 452.602 106.177C452.769 104.136 452.436 102.037 452.174 99.9829C452.032 98.8731 451.571 97.8045 451.766 96.4582C452.576 97.7422 453.387 99.0266 454.201 100.308C455.067 103.341 455.874 106.491 454.413 109.452C453.067 112.18 451.197 114.648 449.372 117.523C453.913 119.009 458.118 117.973 462.717 116.544C461.474 109.97 459.13 104.488 454.071 100.42Z" fill="#161314" fill-opacity="0.2"/>
</svg>
