<svg width="66" height="56" viewBox="0 0 66 56" fill="none" xmlns="http://www.w3.org/2000/svg">
<path d="M31.8103 24.24C31.8018 24.3311 31.7801 24.3843 31.7969 24.4191C31.8384 24.5058 31.874 24.6657 31.9495 24.6657C32.0249 24.6657 32.0776 24.5971 32.0735 24.5763C32.055 24.4831 32.019 24.3908 31.9728 24.3073C31.9561 24.2771 31.8934 24.2725 31.8103 24.24ZM28.992 22.6714C28.9945 23.0177 29.1337 23.1744 29.5304 23.3099C29.3743 23.0746 29.2783 22.8135 28.992 22.6714ZM14.6918 13.9232C14.4508 13.931 14.3449 14.0711 14.2997 14.219C14.2217 14.4742 14.1796 14.7417 14.1402 15.0066C14.1209 15.1366 14.1026 15.2822 14.2501 15.422C14.5017 14.9446 14.8219 14.5203 14.6918 13.9232ZM38.3983 9.28148C37.9801 9.9115 37.7082 10.5625 37.4312 11.2506C38.0226 11.0406 38.5074 10.0493 38.3983 9.28148ZM28.4467 11.2274C28.3838 10.787 27.8215 9.62401 27.5261 9.32344C27.4217 10.0124 27.9043 11.0105 28.4467 11.2274ZM28.9676 13.3141C28.3781 14.104 28.2822 14.8594 28.6768 15.2634C28.7021 15.0407 28.7142 14.8454 28.7499 14.6546C28.7697 14.5484 28.8012 14.4121 28.8767 14.3559C28.9994 14.2646 29.0399 14.1591 29.032 14.0274C29.0176 13.7892 28.9898 13.5518 28.9676 13.3141ZM48.2912 32.6171C48.0655 32.4926 47.8393 32.5094 47.6217 32.5444C47.3635 32.5859 47.3024 32.7643 47.4492 32.9796C47.5547 33.1342 47.6537 33.2935 47.764 33.4445C47.8303 33.5354 47.9126 33.6144 47.9895 33.7009C48.227 33.4367 48.3138 33.1181 48.2912 32.6171ZM17.609 32.6363C17.6788 33.0036 17.6574 33.3885 17.9442 33.7366C18.1617 33.4367 18.3589 33.1787 18.5398 32.9097C18.635 32.7682 18.5651 32.6101 18.3805 32.5631C18.13 32.4993 17.8753 32.4894 17.609 32.6363ZM31.2105 22.1232C31.1873 22.1408 31.1642 22.1584 31.141 22.176C31.2374 22.5706 31.3271 22.967 31.4347 23.3585C31.4611 23.4545 31.5333 23.5472 31.6063 23.6192C31.7801 23.7909 32.0479 23.8051 32.1687 23.664C32.4011 23.3923 32.4205 23.0593 32.152 22.8172C31.8639 22.5572 31.5264 22.3522 31.2105 22.1232ZM40.9408 9.05556C41.0682 8.75254 41.0193 8.46059 40.8961 8.16819C40.5983 7.46132 40.4106 6.72195 40.2897 5.96703C40.2113 5.47725 40.238 4.98576 40.3753 4.50126C40.4039 4.85594 40.414 5.21333 40.4647 5.56482C40.6056 6.542 40.9586 7.43524 41.632 8.16769C41.9321 8.49409 42.2915 8.76685 42.632 9.05438C42.8109 9.20538 43.0017 9.34391 43.1969 9.47325C43.4178 9.61963 43.6572 9.6265 43.897 9.51377C43.9494 9.48911 44.0138 9.46204 44.0414 9.41687C44.3003 8.9934 44.6058 8.5921 44.4716 8.03367C44.3669 7.59779 44.1909 7.21197 43.8873 6.88404C43.8557 6.84994 43.8305 6.80974 43.8041 6.77119C43.7995 6.76452 43.8034 6.75198 43.8033 6.74215C44.1953 6.91188 44.6019 7.41237 44.702 7.87289C44.7917 8.28563 44.8917 8.69888 44.846 9.12811C44.8187 9.3842 44.9159 9.59567 45.1077 9.75292C45.2975 9.90848 45.4936 10.0645 45.7091 10.178C45.8957 10.2764 46.1151 10.3096 46.3127 10.1721C46.452 10.0752 46.5625 10.0902 46.6855 10.2117C46.7554 10.2806 46.8657 10.3084 46.9859 10.3688C46.787 10.425 46.6045 10.4766 46.3828 10.5392C46.8787 10.6373 47.422 10.5354 47.778 10.2745C47.9337 10.1604 48.0561 10.1228 48.2546 10.2121C48.7598 10.4393 49.4355 10.1606 49.672 9.65062C49.707 9.57515 49.7056 9.46122 49.6769 9.381C49.4561 8.76559 49.253 8.14135 48.9873 7.54539C48.7687 7.05506 48.4913 6.58746 48.2054 6.13159C47.655 5.25411 46.9068 4.55338 46.1268 3.88617C44.3041 2.32714 42.1929 1.37923 39.8533 0.916115C39.7893 0.903435 39.726 0.886703 39.6682 0.840836C39.966 0.840836 40.2657 0.818062 40.5611 0.844456C42.7659 1.04157 44.7878 1.70996 46.508 3.16471C46.9916 3.57368 47.5155 3.9345 48.004 4.33784C48.6021 4.83155 49.1332 5.37943 49.514 6.07642C49.9696 6.91035 50.4804 7.71431 50.9778 8.52478C51.2256 8.92854 51.5703 9.2507 51.9177 9.56802C51.9828 9.62746 52.0818 9.70989 52.0772 9.77567C52.0508 10.1606 52.2264 10.4817 52.3655 10.8164C52.5458 11.2506 52.7256 11.686 53.0371 12.0462C53.2124 12.2489 53.4053 12.4364 53.6309 12.6004C53.5483 12.4233 53.4533 12.2507 53.3867 12.0679C53.3202 11.8856 53.2092 11.7072 53.2743 11.4459C53.5681 11.4878 53.8902 11.6687 54.1256 11.3726C54.1716 11.3853 54.2052 11.3843 54.2138 11.3985C54.4644 11.8149 54.8545 11.9865 55.3134 12.0807C56.7125 12.3681 58.1286 12.4751 59.5518 12.5186C59.7042 12.5232 59.8576 12.5135 60.01 12.5031C60.4177 12.4751 60.7882 12.3534 61.1085 12.0855C61.5764 11.6942 62.079 11.3404 62.5176 10.9191C63.0429 10.4145 63.4891 9.84608 63.7687 9.14841C64.4864 7.35753 64.6764 5.52848 64.2616 3.64003C64.2473 3.57488 64.2523 3.50549 64.2674 3.43393C64.4827 3.80434 64.5768 4.21581 64.6632 4.62477C64.9225 5.8518 64.9169 7.07856 64.6269 8.3027C64.4538 9.03358 64.3202 9.77562 63.965 10.4498C63.5388 11.2586 63.0037 11.9687 62.2515 12.5133C61.6446 12.9527 61.0678 13.4349 60.4903 13.9133C60.2986 14.0721 60.1337 14.2684 59.9787 14.465C59.7986 14.6934 59.9045 15.1153 60.1955 15.3399C60.5096 15.5824 60.8731 15.7294 61.2667 15.7544C61.687 15.7811 62.1101 15.7653 62.5319 15.7685C62.5775 15.7689 62.6231 15.7727 62.6775 15.8391C62.2543 15.9098 61.8315 15.9822 61.408 16.0508C60.9582 16.1236 60.5222 16.0875 60.1068 15.8827C60.0451 15.8523 59.9723 15.8416 59.9033 15.8293C59.6881 15.7911 59.5167 15.6886 59.3563 15.5347C58.8911 15.0882 58.3622 14.7504 57.7153 14.6213C57.4646 14.5713 57.2273 14.5519 56.9906 14.715C56.7413 14.4116 56.4215 14.3978 56.0924 14.504C55.937 14.5541 55.8047 14.5505 55.6502 14.5088C55.0603 14.3497 54.6781 14.4915 54.4725 15.0686C54.1756 15.9021 54.121 17.007 54.8632 17.7553C55.0654 17.9592 55.331 18.102 55.5749 18.2614C55.6708 18.3241 55.7871 18.3555 55.8882 18.4146C55.3235 18.3899 54.8373 18.1771 54.4625 17.756C54.0346 17.2754 53.7213 16.7241 53.5849 16.0869C53.5584 15.963 53.5608 15.8283 53.5745 15.7013C53.623 15.2507 53.5293 14.8297 53.3013 14.4456C53.0672 14.0514 52.6798 13.856 52.2596 13.7231C52.2043 13.7056 52.1304 13.7467 52.0382 13.7664C52.2393 14.3251 52.3891 14.8705 52.0804 15.4547C52.0563 15.3962 52.0391 15.3757 52.0421 15.3588C52.2067 14.4357 51.7137 13.7724 51.09 13.2384C50.6249 12.8402 50.0149 12.6983 49.4175 13.0414C49.2351 13.1461 49.1231 13.1476 48.9545 13.0117C48.7026 12.8087 48.3816 12.7449 48.0647 12.7136C47.33 12.6409 46.5941 12.5819 45.859 12.5142C45.5554 12.4862 45.2469 12.4756 44.9509 12.4103C44.633 12.3402 44.3607 12.4533 44.0754 12.5453C44.3582 12.5727 44.6452 12.5789 44.9227 12.6335C45.2083 12.6897 45.4857 12.7898 45.7646 12.8774C45.9045 12.9213 46.0094 12.9996 46.0414 13.1636C46.126 13.597 46.4854 13.813 46.7927 14.057C47.1169 14.3145 47.4972 14.4197 47.9169 14.3473C47.9962 14.3336 48.0839 14.338 48.1625 14.3564C48.8638 14.5212 49.4698 14.8607 49.9723 15.3933C49.6485 15.2496 49.332 15.0851 48.9989 14.9682C48.6633 14.8504 48.3127 14.7213 47.8982 14.937C47.9977 15.0623 48.0567 15.1782 48.1501 15.2476C48.8748 15.7871 49.6624 16.2152 50.5569 16.3699C51.0848 16.4612 51.6309 16.4586 52.1694 16.4716C52.5274 16.4802 52.7386 16.3022 52.8564 15.9243C52.9883 15.5008 53.0118 15.0688 52.8902 14.6356C52.8659 14.5492 52.8457 14.4616 52.8087 14.3162C53.0362 14.5451 53.1155 14.7804 53.1598 15.0219C53.2063 15.2758 53.2212 15.5358 53.2448 15.7936C53.2799 16.1757 53.191 16.5211 52.9161 16.8002C52.7418 16.9773 52.7457 17.165 52.8308 17.383C53.115 18.1099 53.6586 18.5671 54.3564 18.8553C54.5131 18.92 54.6995 18.9226 54.8734 18.9336C55.9679 19.003 56.835 18.5551 57.5393 17.7435C57.5854 17.6903 57.6333 17.6386 57.6809 17.5867C57.6887 17.5782 57.6994 17.5723 57.7611 17.5253C57.7002 17.6552 57.6721 17.7385 57.6259 17.8102C57.2367 18.4143 56.7529 18.9206 56.1009 19.2416C55.9336 19.324 55.7527 19.3854 55.5718 19.432C55.1352 19.5445 55.1337 19.5387 54.9983 19.9955C55.2326 20.2818 55.6333 20.401 56.0056 20.2551C56.952 19.884 57.7322 19.3084 58.2083 18.3789C58.4397 17.927 58.6359 17.4618 58.7429 16.9624C58.7592 16.8863 58.7944 16.8143 58.8392 16.7453C58.8992 17.1999 58.7751 17.6293 58.6471 18.0491C58.4337 18.7488 58.1379 19.4147 57.683 19.9969C57.5168 20.2096 57.3445 20.4178 57.1668 20.6209C57.1152 20.6798 57.0409 20.7285 56.9674 20.7565C56.6306 20.8847 56.3506 21.0863 56.1064 21.352C56.0257 21.4399 55.8932 21.5252 55.7805 21.5306C55.3088 21.5532 54.8983 21.7389 54.4943 21.9552C54.434 21.9875 54.3688 22.0104 54.3077 22.0368C54.2036 22.7036 54.2581 23.3609 54.3174 24.0139C54.3354 24.2127 54.456 24.4149 54.57 24.589C54.7132 24.8079 54.7339 25.0172 54.634 25.2713C54.1991 24.9734 53.941 24.5478 53.682 24.1198C53.8036 24.7958 54.1223 25.36 54.6842 25.7509C55.3584 26.2199 56.0898 26.5919 56.8625 26.8732C57.3288 27.0429 57.7926 26.9264 58.2442 26.7998C58.824 26.6374 59.2393 26.2355 59.6044 25.7802C60.4881 24.6782 61.0608 23.4226 61.4144 22.0608C61.4493 21.9265 61.4823 21.7916 61.5809 21.6678C61.5326 21.9973 61.5022 22.3307 61.4327 22.6558C61.248 23.5195 61.0454 24.3818 60.6628 25.1826C60.4811 25.5628 60.2364 25.913 60.0159 26.2741C59.8632 26.5241 59.7074 26.7725 59.5448 27.0161C59.4211 27.2013 59.2977 27.3901 59.1479 27.5531C59.0775 27.6297 58.9492 27.6748 58.8407 27.6907C58.3651 27.7604 57.938 27.9446 57.5493 28.2191C57.3463 28.3623 57.172 28.4061 56.9444 28.2423C56.6975 28.0646 56.4144 27.9832 56.126 28.1935C56.0353 28.2596 55.9386 28.2532 55.8285 28.2028C55.5871 28.0922 55.3363 28.0021 55.067 27.8948C55.2074 28.2084 55.425 28.4317 55.7254 28.5832C55.9124 28.6776 56.1438 28.7432 56.2632 28.8947C56.3723 29.0333 56.3454 29.2735 56.3999 29.4627C56.5244 29.8951 56.6879 30.3088 57.0395 30.6169C57.0923 30.6632 57.1418 30.7158 57.1826 30.7728C57.66 31.44 58.3351 31.8661 59.0203 32.2757C59.7912 32.7365 60.6038 32.8409 61.4905 32.6364C63.3749 32.2016 64.7911 31.1538 65.7766 29.4999C65.8365 29.3994 65.8996 29.3008 66 29.2159C65.961 29.3187 65.9262 29.4233 65.8825 29.524C65.2168 31.0599 64.1052 32.1526 62.6195 32.9048C61.6712 33.385 60.6783 33.5801 59.631 33.56C59.5183 33.5579 59.3926 33.5306 59.2967 33.4742C58.6224 33.0775 57.8806 32.8616 57.1358 32.6577C56.8897 32.5903 56.696 32.465 56.4998 32.3084C56.0702 31.9653 55.6208 31.6468 55.1762 31.3227C54.9686 31.1714 54.776 31.2091 54.5642 31.3507C53.3712 32.1482 52.6693 33.2892 52.2528 34.6323C51.8606 35.8972 52.0376 37.1029 52.6725 38.2447C52.8599 38.5817 53.1107 38.8832 53.3626 39.2441C53.2607 39.1759 53.182 39.1388 53.123 39.0813C52.376 38.3539 51.8379 37.5169 51.6078 36.4734C51.4274 35.6552 51.402 34.8433 51.4906 34.0224C51.5231 33.7214 51.6112 33.4244 51.6959 33.132C51.7304 33.013 51.8254 32.9121 51.8893 32.801C52.1109 32.4157 52.3325 32.0303 52.5493 31.6424C52.5761 31.5945 52.5773 31.5307 52.5827 31.4735C52.5845 31.455 52.562 31.4342 52.5268 31.3731C52.4263 31.449 52.3149 31.5098 52.2336 31.5983C51.8371 32.0297 51.4202 32.4522 51.1637 32.9857C50.9562 33.4174 50.7892 33.8704 50.6312 34.3235C50.5593 34.5296 50.4777 34.7124 50.3117 34.8568C49.6774 35.4083 49.2647 36.1184 48.923 36.8698C48.8145 37.1082 48.7814 37.3836 48.7323 37.6455C48.6915 37.8637 48.686 38.0883 48.6505 38.3077C48.5779 38.7563 48.6408 39.1979 48.6812 39.6445C48.7339 40.2281 49.0542 40.6228 49.5033 40.9372C49.9878 41.2764 50.5503 41.4021 51.1221 41.4974C52.2317 41.6823 53.2707 41.4688 54.2629 40.96C54.851 40.6585 55.4122 40.3175 55.9238 39.897C55.9728 39.8566 56.026 39.8211 56.1113 39.8202C56.0622 39.8794 56.0169 39.9423 55.9636 39.9973C54.7405 41.2563 53.2603 42.0184 51.525 42.2577C50.7217 42.3685 49.9133 42.2942 49.1107 42.2033C49.0068 42.1915 48.8777 42.1212 48.8199 42.0369C48.6426 41.778 48.3892 41.6346 48.1122 41.5382C47.9182 41.4706 47.8001 41.3604 47.7035 41.1846C47.6272 41.0456 47.5129 40.92 47.3931 40.814C46.8514 40.3345 46.2293 40.2389 45.5571 40.4741C45.2515 40.5811 44.9571 40.7204 44.6678 40.8842C45.0297 40.9385 45.3787 40.7012 45.7431 40.8697C45.7431 40.9163 45.7482 40.95 45.7424 40.9817C45.6806 41.318 45.4961 41.5308 45.1605 41.64C44.8882 41.7285 44.6811 41.9292 44.5131 42.1649C44.227 42.5663 43.9326 42.9618 43.6519 43.367C43.1472 44.0952 42.9154 44.9404 42.6578 45.771C42.1015 47.5646 41.9217 49.4141 41.884 51.2817C41.8533 52.8052 41.956 54.3195 42.2168 55.822C42.2263 55.8765 42.218 55.934 42.1616 56C42.0197 55.3833 41.8655 54.7691 41.738 54.1495C41.2122 51.5944 41.0816 49.0118 41.2304 46.4121C41.2634 45.8361 41.3177 45.2611 41.3765 44.6871C41.3902 44.5536 41.4376 44.4091 41.5123 44.2987C41.9626 43.6321 42.3339 42.9226 42.6314 42.1783C42.7516 41.8775 42.7923 41.5436 42.8568 41.2223C42.8995 41.0096 42.7978 40.8628 42.609 40.7649C42.4089 40.6611 42.2086 40.5841 41.9745 40.5818C41.6002 40.5782 41.2177 40.5892 40.8534 40.5182C38.9755 40.1527 37.65 39.027 36.6924 37.4145C36.6719 37.3799 36.6716 37.3331 36.6988 37.2746C36.7709 37.3631 36.845 37.45 36.9147 37.5404C37.7126 38.5756 38.7501 39.2977 39.947 39.7758C40.3037 39.9184 40.7296 39.9248 41.1242 39.9267C41.9638 39.9309 42.7739 39.7258 43.577 39.4966C44.0885 39.3506 44.5647 39.1227 45.0003 38.826C45.2787 38.6364 45.5342 38.4011 45.762 38.1515C46.1882 37.6844 46.645 37.2309 46.8077 36.5842C46.8249 36.5157 46.8519 36.4495 46.8667 36.3806C46.9214 36.1275 46.8518 36.0562 46.5977 36.0958C46.1418 36.1668 45.7388 36.0487 45.3892 35.7484C45.3756 35.7367 45.3753 35.7096 45.3551 35.648C45.7861 35.912 46.2114 35.9472 46.6466 35.7445C47.0054 35.5773 47.3369 35.3677 47.5032 34.9924C47.6912 34.568 47.6248 34.1343 47.4519 33.7221C47.2793 33.3107 47.0212 32.968 46.5215 32.8217C46.2365 32.9416 45.9369 33.1132 45.7086 33.3931C45.6788 33.4296 45.6524 33.4715 45.6157 33.4992C44.9337 34.0128 44.7155 34.7712 44.5557 35.5514C44.4696 35.9721 44.4315 36.4027 44.3693 36.8466C44.2403 36.1738 44.2938 35.5166 44.4421 34.8745C44.6408 34.0145 44.9026 33.1759 45.3813 32.4145C45.5378 32.1655 45.6276 31.8446 45.6467 31.5499C45.6582 31.3742 45.5183 31.1177 45.3672 31.0163C45.0125 30.7783 44.8956 30.4305 44.7666 30.0651C44.5708 29.5107 44.197 29.0711 43.7612 28.6661C43.8219 28.7758 43.8826 28.8856 43.9434 28.9954C44.0062 29.1086 44.064 29.2251 44.1332 29.3343C44.2722 29.5533 44.3244 29.7859 44.2604 30.065C43.7688 30.2744 43.5542 30.7523 43.3409 31.1992C43.0945 31.7155 42.9223 32.2687 42.7366 32.8122C42.6114 33.1788 42.4084 33.4845 42.1283 33.7454C41.8789 33.9778 41.6235 34.2045 41.3858 34.4486C40.4638 35.3957 39.3298 35.9619 38.0761 36.3156C38.0005 36.337 37.9183 36.335 37.8267 36.3039C37.9069 36.2657 37.9857 36.2245 38.0673 36.1897C38.6745 35.9308 39.2659 35.6513 39.7561 35.1877C40.0709 34.89 40.4268 34.6364 40.7486 34.3456C41.2314 33.9092 41.523 33.3403 41.7545 32.7468C42.0633 31.9553 42.2161 31.1234 42.2978 30.2788C42.3305 29.9408 42.3577 29.6022 42.3842 29.2636C42.4114 28.9174 42.3827 28.5721 42.2044 28.2722C42.0918 28.0828 42.0684 27.895 42.1004 27.6986C42.1417 27.4449 42.2128 27.1958 42.2741 26.9455C42.4194 26.3529 42.4195 25.7622 42.254 25.1737C42.2463 25.1466 42.2178 25.1255 42.1738 25.0695C42.1695 25.4953 42.1058 25.8679 41.7998 26.1888C41.5689 25.8239 41.4037 25.4374 41.0109 25.2579C41.0617 24.8123 40.9025 24.4394 40.6687 24.0926C40.534 23.8928 40.3486 23.7611 40.1142 23.6804C39.6036 23.5045 39.099 23.3106 38.5941 23.1183C38.4855 23.0769 38.3697 23.0293 38.2853 22.9531C37.8927 22.5992 37.4849 22.2571 37.1302 21.8673C36.6826 21.3755 36.5605 20.7486 36.5639 20.0896C36.6164 20.2375 36.6696 20.3852 36.7213 20.5335C37.074 21.547 37.7765 22.1975 38.8097 22.4397C39.1752 22.5254 39.5808 22.4887 39.9612 22.4464C40.2966 22.4091 40.4234 22.2173 40.3797 21.7955C40.3477 21.4869 40.2121 21.2086 39.9882 20.9861C39.7918 20.7909 39.6728 20.5639 39.5885 20.2964C39.5126 20.0557 39.3887 19.8085 39.2205 19.6243C39.025 19.4103 38.9219 19.1623 38.8702 18.9061C38.7243 18.1829 38.5971 17.4544 38.5032 16.7228C38.4353 16.1938 38.5161 15.6646 38.6547 15.1483C38.6692 15.0945 38.696 15.044 38.7657 14.9996C38.7657 15.0612 38.7701 15.1232 38.765 15.1843C38.6805 16.1921 38.8781 17.1432 39.2867 18.0663C39.7568 19.1285 40.4324 20.0295 41.3017 20.7884C41.4303 20.9006 41.5926 20.9803 41.7496 21.0524C42.1595 21.2405 42.5409 21.5312 43.0361 21.4382C43.0691 21.432 43.1146 21.4319 43.1392 21.4498C43.5487 21.7483 44.0549 21.7027 44.5096 21.839C44.6669 21.8862 44.8275 21.9265 44.9892 21.954C46.1539 22.1521 46.8146 22.9379 47.2879 23.9367C47.4382 24.2539 47.5346 24.5913 47.5485 24.9526C47.494 24.8378 47.4377 24.7237 47.3852 24.6079C46.9907 23.7371 46.3498 23.133 45.4461 22.8181C45.3142 22.7721 45.1727 22.7307 45.035 22.7286C44.235 22.7165 43.7288 23.593 44.1193 24.3034C44.7975 25.5374 45.644 26.6521 46.5365 27.7346C46.8136 28.0707 47.0852 28.4114 47.3561 28.7526C47.4488 28.8695 47.5444 28.9903 47.4977 29.2115C47.2675 29.0834 47.0599 28.9814 46.867 28.8566C46.6854 28.7391 46.5193 28.5976 46.3302 28.4898C46.7775 29.1122 47.3183 29.5996 48.1072 29.7423C48.5471 29.8219 48.9336 29.7186 49.3084 29.4781C50.0238 29.019 50.6957 28.5129 51.2284 27.8423C51.2876 27.7679 51.3305 27.658 51.332 27.5638C51.3395 27.0943 51.3312 26.6245 51.3271 26.1548C51.3248 25.8855 51.2298 25.6828 50.9542 25.5849C50.5684 25.4479 50.1861 25.3004 49.8057 25.1487C49.6218 25.0754 49.4167 25.0168 49.2712 24.8927C48.6196 24.3366 48.0793 23.6895 47.7617 22.8789C47.7457 22.8381 47.7445 22.7914 47.7208 22.6626C47.8218 22.7959 47.869 22.8666 47.9244 22.9301C48.2412 23.2921 48.5378 23.676 48.8864 24.0044C49.093 24.1991 49.3745 24.3225 49.6365 24.4481C50.2913 24.762 51.1445 24.2324 51.0674 23.3584C51.0347 22.9872 50.9465 22.6167 50.8415 22.2583C50.8059 22.137 50.6409 22.0538 50.5176 21.9365C50.7238 21.6277 50.7425 21.2608 50.6846 20.8813C50.6434 20.6114 50.7082 20.5236 50.9842 20.4952C51.283 20.4645 51.574 20.5032 51.8299 20.6719C52.0401 20.8104 52.2388 20.9663 52.4972 21.1542C52.4538 21.0513 52.4406 20.999 52.4125 20.9566C52.0609 20.4274 51.5645 20.0841 50.9801 19.8646C50.8293 19.808 50.6612 19.7843 50.4993 19.7745C50.2072 19.7568 49.9563 19.6633 49.7228 19.4819C49.4279 19.253 49.1684 18.9671 48.7941 18.8542C48.7381 18.8373 48.6858 18.8079 48.6298 18.7915C48.3552 18.7114 48.249 18.7779 48.2357 19.0584C48.2017 19.7797 47.8175 20.3311 47.2981 20.754C46.8466 21.1217 46.2647 21.2308 45.6641 21.1687C45.7914 21.1321 45.92 21.0993 46.0458 21.0577C46.1683 21.0173 46.2897 20.9721 46.4087 20.9218C47.659 20.393 47.7185 19.3724 47.1108 18.3767C46.8503 17.9499 46.4671 17.6383 46.0133 17.4136C45.7314 17.2741 45.4652 17.103 45.1515 16.9229C45.0003 17.123 44.8571 17.29 44.7394 17.4735C44.5529 17.7642 44.3263 18.0003 44.0125 18.1395C43.9956 18.1221 43.9788 18.1046 43.962 18.0872C44.0475 18.014 44.1529 17.9545 44.2143 17.8648C44.3391 17.6828 44.4946 17.4962 44.5389 17.2902C44.6173 16.9257 44.5284 16.579 44.1718 16.3734C43.8466 16.1858 43.528 15.9672 43.1775 15.8475C42.7129 15.6889 42.4955 15.3437 42.306 14.9437C42.2312 14.7859 42.1619 14.6172 42.0513 14.4865C41.8875 14.2931 41.6806 14.1684 41.4012 14.2586C40.8245 14.4451 40.2635 14.3589 39.7138 14.1398C39.6512 14.1148 39.5926 14.0798 39.5452 14.0017C39.6753 14.0215 39.8048 14.0458 39.9355 14.0603C40.3804 14.1099 40.6192 13.9836 40.8288 13.5931C41.2031 12.8957 41.0554 12.0318 40.4703 11.4961C40.2279 11.2742 40.0492 11.2754 39.8396 11.5105C39.6601 11.7117 39.4841 11.9163 39.3137 12.1254C39.0352 12.4671 39.036 12.4747 39.0798 12.8858C38.5001 13.2323 38.4208 13.4677 38.7158 14.0333C38.6615 14.0781 38.6088 14.1395 38.5423 14.1733C38.3382 14.2768 38.1622 14.4121 38.049 14.6118C37.7769 15.0919 37.509 15.5745 37.2472 16.0603C37.181 16.1831 37.1348 16.3192 37.0955 16.4538C36.9739 16.8703 37.0276 17.0971 37.3262 17.4316C37.2675 17.4671 37.2154 17.5056 37.1579 17.5322C36.9067 17.6483 36.7493 17.8498 36.666 18.104C36.5274 18.527 36.3918 18.9517 36.2772 19.3816C36.1444 19.8791 36.0082 20.3785 35.9258 20.8857C35.8667 21.2491 35.7664 21.608 35.7856 21.9877C35.8129 22.5273 36.0709 22.9495 36.4 23.341C36.5631 23.5351 36.7958 23.5852 37.0412 23.5705C37.1926 23.5615 37.3434 23.5444 37.5483 23.5261C37.3818 23.7118 37.1981 23.7498 37.0268 23.7514C36.6291 23.7552 36.2273 23.7545 35.8345 23.7012C35.626 23.673 35.4943 23.7068 35.3847 23.8713C35.2632 24.0538 35.1201 24.2193 35.1333 24.4692C35.1396 24.5892 35.0505 24.7115 35.0234 24.8367C34.9633 25.1144 35.0048 25.216 35.2473 25.4282C35.2015 25.4647 35.1636 25.5139 35.1147 25.5307C34.8398 25.6252 34.7395 25.814 34.7496 26.101C34.7645 26.5248 34.7505 26.9495 34.7535 27.3737C34.7542 27.467 34.7596 27.5649 34.7879 27.6525C35.023 28.3801 35.242 29.114 35.5095 29.8296C35.759 30.497 36.1397 31.0929 36.6601 31.5899C36.6891 31.6175 36.7119 31.6515 36.7216 31.6984C36.3557 31.5221 36.0592 31.26 35.803 30.9558C34.928 29.917 34.2857 28.7586 33.9971 27.4162C33.9136 27.0278 33.8082 26.6414 33.6755 26.2673C33.5661 25.9588 33.4809 25.9049 33.1718 25.813C33.2453 25.907 33.3192 26.0006 33.3923 26.0949C33.4766 26.2038 33.4919 26.2958 33.4292 26.4444C33.2701 26.8217 33.1672 27.216 33.4092 27.611C33.495 27.751 33.5464 27.9129 33.6367 28.0494C34.0469 28.6695 34.1851 29.373 34.2488 30.0921C34.331 31.0189 34.4129 31.9474 34.4406 32.8768C34.479 34.17 34.3057 35.4392 33.8413 36.6563C33.7583 36.8739 33.6543 37.0833 33.5052 37.2827C33.5081 37.2369 33.5025 37.1886 33.5152 37.1457C33.7275 36.4292 33.818 35.6955 33.8399 34.9501C33.8792 33.613 33.801 32.2824 33.4719 30.9857C33.197 29.9029 32.8546 28.8383 32.2696 27.867C31.9498 27.336 31.4933 27.0328 30.9157 26.8766C30.4376 26.7472 29.9958 26.9381 29.7567 27.3776C29.724 27.4378 29.6997 27.5025 29.6588 27.5933C29.6387 27.305 29.6422 27.2141 29.8123 27.0394C29.9988 26.8477 30.211 26.6753 30.4326 26.5251C30.7178 26.3318 30.7463 26.2088 30.479 25.9969C30.3632 25.9051 30.2099 25.8619 30.0765 25.7911C29.9126 25.7043 29.7206 25.6422 29.5967 25.5147C29.3996 25.3118 29.1647 25.2061 28.9127 25.1081C28.5974 24.9855 28.2758 24.8697 27.9801 24.7083C27.6378 24.5215 27.4364 24.1706 27.3821 23.713C27.4533 23.8173 27.5242 23.9219 27.5959 24.0258C27.85 24.3942 28.1927 24.5897 28.6462 24.5424C28.7577 24.5307 28.876 24.4884 28.9707 24.4279C29.2627 24.2415 29.3254 23.9913 29.1319 23.7055C28.799 23.2137 28.3373 22.842 27.8975 22.4538C27.8111 22.3775 27.6555 22.3797 27.5317 22.3459C27.2049 22.2564 26.8756 22.1748 26.5517 22.0757C26.1534 21.9538 25.8963 21.6476 25.729 21.2987C25.5474 20.9201 25.4418 20.5048 25.3083 20.1037C25.2912 20.0523 25.306 19.9902 25.306 19.8554C25.3858 20.0263 25.4256 20.1342 25.4836 20.2314C25.6457 20.5033 25.7837 20.7983 25.9884 21.0343C26.4659 21.5848 27.2817 21.5058 27.6751 20.8933C27.7238 20.8175 27.7719 20.7182 27.7653 20.6341C27.7379 20.2836 27.7404 19.9186 27.6365 19.5892C27.4923 19.1319 27.2901 18.6777 26.6865 18.57C26.7687 18.5038 26.8014 18.4721 26.839 18.4481C27.1553 18.2456 27.2505 17.9517 27.1972 17.5934C27.1415 17.219 27.0502 16.857 26.8697 16.5197C26.627 16.0661 26.4007 15.6036 26.1516 15.1537C26.0501 14.9703 25.8993 14.8151 25.7851 14.6378C25.5928 14.3395 25.4545 14.0197 25.4777 13.6445C25.5247 13.7447 25.5612 13.8518 25.6212 13.9434C25.717 14.0896 25.8126 14.242 25.9374 14.3612C26.0822 14.4993 26.2722 14.637 26.4749 14.5252C26.6735 14.4155 26.8041 14.2209 26.7816 13.9696C26.7619 13.7477 26.7369 13.5259 26.7038 13.3057C26.6675 13.0643 26.6194 12.8248 26.5696 12.5462C26.1906 12.771 25.8091 12.8532 25.4223 12.9399C25.1846 12.9932 25.0127 13.2331 24.9839 13.4866C24.9554 13.7375 24.7945 13.9097 24.7001 14.1195C24.6743 14.1769 24.5646 14.2345 24.5031 14.2255C24.454 14.2183 24.4036 14.1151 24.3821 14.0457C24.3408 13.9128 24.3196 13.7736 24.2823 13.6011C24.0873 14.0855 24.0774 14.5676 24.0555 15.035C24.0276 15.632 24.0807 16.233 24.1064 16.832C24.1113 16.9469 24.1309 17.0695 24.1783 17.1725C24.3107 17.4602 24.5006 17.5403 24.8003 17.4343C25.0631 17.3414 25.3186 17.2278 25.6014 17.1479C25.5399 17.2041 25.4855 17.2717 25.4159 17.3144C25.0692 17.5269 24.7616 17.8074 24.3378 17.8839C24.1134 17.9245 23.9038 17.9452 23.6804 17.8765C23.3843 17.7854 23.0946 17.767 22.7918 17.9168C22.546 18.0384 22.3713 18.168 22.407 18.4346C21.254 19.154 20.1696 19.9068 19.216 20.8503C19.6226 20.6138 20.0293 20.3772 20.468 20.1221C20.5042 20.2665 20.5341 20.3853 20.5638 20.5041C20.7055 21.0698 21.1247 21.3723 21.632 21.5312C21.9883 21.6428 22.3253 21.4893 22.5894 21.2173C22.8626 20.9361 22.9173 20.5992 22.7999 20.2383C22.7367 20.0438 22.6337 19.8622 22.5289 19.6313C23.0776 20.0577 23.3094 20.815 23.0832 21.3976C22.9944 21.6264 22.8688 21.8423 22.745 22.0554C22.6386 22.2387 22.5693 22.42 22.6813 22.6199C22.7728 22.7833 22.7957 23.0003 23.0509 23.0375C23.1388 23.0503 23.2243 23.1542 23.2897 23.234C23.7524 23.7983 24.2609 24.316 24.8275 24.7755C24.9277 24.8567 25.0399 24.9231 25.1431 25.0009C25.3441 25.1525 25.5574 25.157 25.7711 25.0436C25.9466 24.9505 26.1221 24.8523 26.2814 24.7344C26.684 24.4368 26.8588 23.9052 26.7318 23.4158C26.5897 22.8684 26.366 22.3629 25.9771 21.9342C26.2066 22.0189 26.3743 22.1769 26.5145 22.36C26.9622 22.9445 27.1828 23.6232 27.2729 24.3423C27.3275 24.7778 27.1993 25.1889 26.9378 25.5396C26.7611 25.7767 26.7953 26.005 26.9171 26.2258C27.1556 26.6581 27.4934 26.9935 27.9445 27.2122C28.1008 27.2879 28.2404 27.3996 28.384 27.5001C28.4706 27.5607 28.5492 27.6327 28.6331 27.6973C29.4956 28.3617 30.4654 28.5631 31.5268 28.3707C31.545 28.3674 31.566 28.3793 31.6048 28.3888C31.4018 28.5485 31.1709 28.5952 30.9412 28.6283C30.4941 28.6926 30.0519 28.6589 29.6132 28.5425C29.2449 28.4447 28.8753 28.3397 28.4861 28.357C29.0706 28.6159 29.713 28.7328 30.1732 29.2368C30.3672 29.4492 30.6381 29.5889 30.8598 29.7784C31.5588 30.376 32.1518 31.0718 32.6742 31.8255C33.3436 32.7916 33.5237 33.8754 33.389 35.0257C33.3884 35.0308 33.3742 35.0343 33.335 35.0554C33.3148 34.9362 33.2895 34.8267 33.2786 34.7157C33.1905 33.8154 32.8868 33.0007 32.3444 32.2734C31.7987 31.5416 31.1763 30.8832 30.4469 30.3383C30.1303 30.1017 29.7638 29.9279 29.4079 29.75C29.1798 29.636 28.7882 29.7702 28.6381 30.0204C28.4382 30.3536 28.0509 30.5269 27.9139 30.9144C27.8856 30.9945 27.7547 31.0501 27.6601 31.0927C26.8022 31.4788 25.94 31.5249 25.0761 31.1095C25.0445 31.0943 25.014 31.0761 24.9849 31.0565C24.966 31.0437 24.9505 31.0257 24.9524 31.0274C25.3694 31.0535 25.8032 31.1053 26.2365 31.1019C26.8413 31.0971 27.2831 30.8071 27.5477 30.2505C27.6206 30.0972 27.6434 29.9521 27.5437 29.8191C27.383 29.6048 27.2317 29.37 27.0275 29.2047C26.6229 28.8772 26.1681 28.6307 25.635 28.5677C25.4803 28.5495 25.4814 28.5401 25.2306 28.2162C25.4965 28.2356 25.7371 28.2531 25.9778 28.2707L25.9919 28.2224C25.9131 28.1921 25.8367 28.15 25.7551 28.1337C25.4328 28.0694 25.111 27.9942 24.7851 27.9582C24.2596 27.9 24.0228 28.0454 23.8291 28.5373C23.6691 28.9436 23.5488 29.3629 23.6104 29.8094C23.7034 30.4828 23.7566 31.1654 23.9052 31.8263C24.0864 32.6317 24.3736 33.413 24.9256 34.0496C25.2079 34.3752 25.5506 34.6487 25.8688 34.9427C25.9376 35.0061 26.0255 35.049 26.093 35.1135C26.6934 35.6876 27.4257 36.0275 28.1912 36.3098C28.2342 36.3257 28.2746 36.3486 28.3049 36.4139C28.0734 36.358 27.838 36.3147 27.6111 36.2439C26.3537 35.8516 25.2386 35.226 24.3469 34.2336C24.2062 34.077 24.0409 33.9414 23.8794 33.8049C23.557 33.5323 23.3356 33.1973 23.197 32.797C23.0129 32.2652 22.8102 31.7398 22.6158 31.2116C22.6118 31.2007 22.6152 31.1849 22.6085 31.1774C22.2995 30.8314 22.3219 30.4109 22.3182 29.9859C22.3152 29.6416 22.209 29.3036 21.9962 29.0329C21.8567 28.8555 21.7994 28.6782 21.8482 28.4808C21.9832 27.9348 21.8075 27.4377 21.6414 26.9364C21.6118 26.8471 21.5654 26.7612 21.5503 26.6698C21.4701 26.1846 21.2315 25.7662 20.9913 25.3518C20.881 25.1615 20.7322 24.99 20.5806 24.8291C20.5293 24.7747 20.4089 24.7477 20.3317 24.7639C20.1652 24.7989 20.108 24.7533 20.0677 24.5857C19.9326 24.0244 19.5651 23.768 18.9927 23.8017C18.8093 23.8126 18.6526 23.8694 18.5186 24.0022C18.271 24.2475 17.9569 24.3742 17.5647 24.5138C17.7986 24.3081 17.9784 24.1526 18.1552 23.9938C18.3236 23.8425 18.3938 23.6511 18.3865 23.425C18.3808 23.2496 18.3251 23.1063 18.1818 22.9967C18.1037 22.9371 18.0377 22.8614 17.9591 22.7861C18.1526 22.5646 18.3892 22.6833 18.6226 22.6021C18.5373 22.5553 18.4805 22.5087 18.416 22.4912C18.02 22.3841 17.6225 22.3791 17.2429 22.5451C17.109 22.6037 16.9993 22.7209 16.8837 22.8174C16.7477 22.9309 16.7339 23.0692 16.802 23.2306C16.9741 23.6391 16.8596 24.0353 16.7263 24.4311C16.7163 24.2528 16.7233 24.0716 16.693 23.8969C16.595 23.3308 16.1319 23.0751 15.6614 23.2444C15.4431 23.3229 15.2324 23.4222 15.0169 23.5086C14.9072 23.5526 14.7944 23.5888 14.6531 23.6392C14.7537 23.1645 14.7751 23.1344 15.5199 22.378C14.7959 22.6025 14.2549 23.1922 14.2647 23.7624C14.2709 24.127 14.2484 24.492 14.2526 24.8566C14.2568 25.2099 14.2935 25.5631 14.2881 25.916C14.2839 26.1899 14.3555 26.4249 14.5193 26.6387C14.6549 26.8157 14.7865 26.9957 14.939 27.2C14.6477 27.4784 14.5929 27.8468 14.5522 28.2879C14.3238 28.0347 14.1749 27.8006 14.0461 27.5553C13.9217 27.3185 13.8149 27.0723 13.681 26.8394C13.8048 27.6973 14.1417 28.4544 14.7199 29.1071C15.1819 29.6285 15.7339 30.002 16.3873 30.2405C16.849 30.409 17.3158 30.5762 17.7518 30.7997C18.6466 31.2584 19.5997 31.613 20.3806 32.2825C20.6445 32.5088 20.8053 32.7917 20.9246 33.0901C21.2303 33.8546 21.5309 34.628 21.5912 35.4604C21.6225 35.8924 21.5967 36.3286 21.5702 36.7673C21.5242 36.4353 21.491 36.101 21.4286 35.7721C21.3717 35.4723 21.2851 35.178 21.2084 34.8821C21.075 34.3673 20.8128 33.9425 20.4146 33.5775C20.1295 33.3161 19.8763 33.025 19.5162 32.8621C19.4743 32.8432 19.4305 32.8284 19.4068 32.8192C18.925 32.9724 18.6546 33.3169 18.4768 33.7407C18.3134 34.1302 18.2518 34.5386 18.416 34.9438C18.587 35.3657 18.9468 35.5898 19.3426 35.7644C19.743 35.9411 20.1388 35.8993 20.5338 35.7226C20.2091 36.0519 19.8127 36.1527 19.379 36.1048C19.0665 36.0704 19.005 36.1134 19.0867 36.4097C19.1997 36.8196 19.3381 37.2167 19.6474 37.534C19.8437 37.7354 20.011 37.965 20.1967 38.1773C20.8913 38.9714 21.8113 39.3504 22.8004 39.6176C23.4732 39.7994 24.1543 39.9062 24.8476 39.9342C25.3696 39.9553 25.8659 39.8648 26.3492 39.6321C27.4845 39.0855 28.4515 38.3438 29.1943 37.3185C29.2193 37.284 29.2524 37.2554 29.3184 37.244C29.2884 37.3139 29.2652 37.3879 29.2274 37.4533C28.4299 38.83 27.289 39.801 25.8 40.3586C25.2161 40.5772 24.6046 40.5887 23.9937 40.5824C23.7341 40.5797 23.5122 40.6637 23.2946 40.7875C23.1459 40.872 23.0615 40.9951 23.0901 41.1638C23.1448 41.4868 23.1696 41.8251 23.2876 42.125C23.5854 42.8816 23.9593 43.6029 24.4164 44.2797C24.5041 44.4095 24.5595 44.5785 24.5779 44.7356C24.7212 45.9543 24.7578 47.1786 24.7595 48.4052C24.7628 50.8087 24.4943 53.1776 23.8939 55.5064C23.8674 55.6089 23.8396 55.7112 23.8087 55.8124C23.8037 55.8287 23.7787 55.8388 23.7311 55.8781C23.7631 55.6294 23.7881 55.4097 23.82 55.1909C24.0934 53.316 24.1083 51.4356 23.968 49.5488C23.8369 47.7854 23.4517 46.0844 22.8335 44.4288C22.5773 43.7426 22.1474 43.1738 21.7411 42.5848C21.6145 42.4012 21.4782 42.2238 21.3384 42.0499C21.1408 41.8041 20.8749 41.6502 20.5849 41.5469C20.3971 41.4801 20.2867 41.383 20.2729 41.1743C20.2671 41.0865 20.2123 41.002 20.1783 40.9119C20.3488 40.7512 20.5394 40.8129 20.7182 40.8375C20.9014 40.8627 21.0815 40.9103 21.263 40.9482C21.2727 40.9268 21.2822 40.9055 21.2919 40.8841C21.1042 40.7859 20.9247 40.6643 20.7269 40.5952C20.4513 40.499 20.1653 40.4232 19.8778 40.3723C19.2861 40.2674 18.5139 40.6674 18.2253 41.2048C18.1525 41.3405 18.0697 41.4567 17.9055 41.5109C17.5904 41.6148 17.3024 41.7634 17.1057 42.0559C17.0548 42.1315 16.9352 42.1921 16.841 42.2022C15.7205 42.3221 14.6038 42.3809 13.4951 42.0783C12.1339 41.7067 10.9692 41.0129 9.98592 40.005C9.95314 39.9713 9.92176 39.9359 9.89386 39.8982C9.88299 39.8836 9.88354 39.8604 9.86781 39.7952C9.98484 39.8819 10.0741 39.9474 10.1626 40.0138C11.0356 40.6689 11.9652 41.2168 13.0421 41.4557C14.0596 41.6815 15.0527 41.5518 16.0144 41.1692C16.3805 41.0235 16.6901 40.7922 16.9338 40.4757C17.118 40.2363 17.2014 39.9698 17.2584 39.6707C17.4052 38.9003 17.2694 38.1457 17.1799 37.39C17.1506 37.1431 17.0156 36.9057 16.9127 36.6712C16.6415 36.0529 16.2994 35.4704 15.7926 35.0236C15.471 34.74 15.3079 34.3974 15.2088 34.0107C14.9985 33.19 14.5406 32.5179 13.9826 31.9054C13.8134 31.7198 13.6783 31.486 13.396 31.3977C13.3116 31.6042 13.4174 31.7756 13.5033 31.925C13.69 32.2494 13.9083 32.5557 14.1136 32.8694C14.3192 33.1837 14.3809 33.5486 14.4298 33.9052C14.5504 34.7852 14.5181 35.6552 14.3134 36.5324C14.0469 37.6751 13.436 38.5675 12.551 39.299C12.5366 39.3109 12.5117 39.31 12.4478 39.3261C12.5478 39.215 12.6255 39.1333 12.6981 39.0473C13.8256 37.713 14.1728 36.2063 13.6513 34.5292C13.2564 33.2592 12.5694 32.1874 11.4633 31.4052C11.1655 31.1946 10.9146 31.1789 10.6362 31.3898C10.2247 31.7014 9.80643 32.0051 9.40934 32.3342C9.23288 32.4805 9.05137 32.5832 8.83422 32.6513C8.24229 32.8369 7.65567 33.0396 7.06714 33.2361C7.04511 33.2435 7.02264 33.2539 7.00453 33.2682C6.45402 33.7018 5.82161 33.6098 5.21506 33.4971C2.81031 33.0504 1.05162 31.7462 0.0384677 29.4861C0.0105211 29.4237 -0.0104513 29.3582 0.00554225 29.268C0.0636722 29.3534 0.125457 29.4365 0.17933 29.5245C0.51921 30.0796 0.92083 30.5848 1.3833 31.0428C2.27667 31.9276 3.38448 32.3803 4.58321 32.6584C5.06181 32.7695 5.5439 32.8068 6.0112 32.6575C6.37629 32.5409 6.7381 32.3869 7.06747 32.1919C7.4796 31.948 7.86001 31.6492 8.24729 31.3647C8.33955 31.2969 8.40696 31.1939 8.4819 31.1039C8.73636 30.7982 9.01116 30.5063 9.23639 30.1802C9.47213 29.8387 9.59436 29.4398 9.63043 29.0239C9.6414 28.8973 9.69229 28.8329 9.79727 28.7844C9.9675 28.7057 10.1407 28.6308 10.3021 28.5362C10.5363 28.3988 10.7248 28.2132 10.8538 27.9181C10.5922 28.0167 10.3635 28.0903 10.1465 28.1894C10.0156 28.2492 9.90264 28.2609 9.78594 28.1797C9.50689 27.9854 9.23564 28.071 8.9986 28.2395C8.79018 28.3877 8.62207 28.3813 8.42373 28.2406C8.0159 27.9515 7.57073 27.7484 7.06783 27.6906C6.92115 27.6737 6.81338 27.6081 6.72865 27.4746C6.23833 26.7018 5.62705 26.0008 5.26352 25.154C4.77383 24.0133 4.45959 22.8205 4.38999 21.5697C4.4251 21.6948 4.46327 21.8192 4.49485 21.9452C4.83391 23.2975 5.38019 24.5542 6.2429 25.6559C6.46597 25.9408 6.71521 26.2249 7.00713 26.4319C7.73543 26.9481 8.52161 27.1226 9.3918 26.7486C10.0178 26.4796 10.6218 26.1742 11.1872 25.8002C11.7895 25.4017 12.1355 24.82 12.2611 24.1064C12.009 24.5442 11.7386 24.9647 11.2969 25.2835C11.2179 25.021 11.2221 24.8005 11.38 24.5813C11.5477 24.3485 11.6494 24.0828 11.6516 23.7911C11.656 23.2159 11.6529 22.6407 11.6529 22.0494C11.17 21.8224 10.7089 21.5481 10.1475 21.5289C10.0276 21.5248 9.88849 21.4177 9.79881 21.3205C9.57031 21.0727 9.30568 20.8903 8.99565 20.7642C8.91168 20.7301 8.82662 20.6779 8.76507 20.6123C7.87186 19.66 7.33174 18.53 7.10454 17.2481C7.07743 17.0951 7.10085 16.9331 7.10085 16.7564C7.27072 17.2183 7.41635 17.6623 7.5955 18.0922C8.04943 19.1813 8.89446 19.8553 9.9668 20.2704C10.1509 20.3417 10.3812 20.3215 10.5409 20.4221C10.9641 20.6888 11.2651 20.4814 11.5634 20.2185C11.8378 19.9766 12.0799 19.7088 12.2141 19.3572C12.3515 18.997 12.2884 18.6431 12.1786 18.2971C12.1031 18.0595 11.9124 17.9269 11.6808 17.8321C11.1839 17.6289 10.8086 17.2874 10.591 16.7866C10.5772 16.7548 10.5689 16.7203 10.5614 16.6863C10.5594 16.6775 10.5704 16.6659 10.5824 16.6412C10.7128 16.7903 10.8306 16.9444 10.9682 17.0781C11.2647 17.3661 11.6231 17.4886 12.034 17.4197C12.2845 17.3777 12.3412 17.2926 12.2579 17.0542C12.1917 16.8646 12.0877 16.6883 11.9864 16.4765C12.0181 16.3134 12.0834 16.1013 12.0928 15.8867C12.099 15.7456 12.0358 15.5966 11.9833 15.4589C11.9131 15.2747 11.8377 15.0895 11.7381 14.9204C11.6024 14.6898 11.3891 14.5186 11.1298 14.4826C10.8685 14.4462 10.5925 14.4622 10.3307 14.504C10.1533 14.5323 9.99893 14.5531 9.81932 14.4977C9.51605 14.4042 9.21224 14.406 8.97371 14.6969C8.46146 14.4507 7.98062 14.6299 7.53506 14.8649C7.18599 15.049 6.88298 15.3207 6.559 15.5528C6.45539 15.6271 6.35907 15.7392 6.24406 15.7648C5.84518 15.8535 5.48507 16.0917 5.05965 16.0732C4.88557 16.0656 4.70942 16.0727 4.53775 16.0482C4.12281 15.9891 3.70993 15.9152 3.29624 15.8473C3.2987 15.8219 3.30117 15.7965 3.30363 15.7711C3.39685 15.7777 3.49004 15.7849 3.58331 15.7908C4.23474 15.8326 4.87653 15.8114 5.47824 15.5113C5.70581 15.3978 5.88561 15.2475 5.98309 14.9992C6.09295 14.7194 6.05038 14.5295 5.80129 14.3365C5.76464 14.3081 5.71973 14.2811 5.69927 14.2425C5.44133 13.7558 4.97511 13.4855 4.56762 13.1585C4.12853 12.8061 3.64822 12.5033 3.22385 12.135C2.93498 11.8843 2.69068 11.5733 2.46278 11.2625C1.94848 10.5612 1.62154 9.7723 1.45783 8.9173C1.34525 8.32928 1.20506 7.74409 1.13579 7.15077C0.987041 5.87628 1.17807 4.63817 1.62962 3.43947C1.64513 3.39828 1.67056 3.36084 1.72998 3.33226C1.70348 3.47919 1.68075 3.62694 1.64987 3.77293C1.23029 5.75774 1.50037 7.66217 2.3273 9.4968C2.5723 10.0404 2.97137 10.483 3.38903 10.8943C4.04289 11.5383 4.78181 12.081 5.5586 12.5688C5.89749 12.7816 6.27833 12.8786 6.6722 12.8171C8.08846 12.5957 9.50208 12.3573 10.9167 12.1253C11.3223 12.0587 11.6537 11.8889 11.8047 11.4365C12.0916 11.6566 12.3661 11.4928 12.6746 11.4401C12.7153 11.8389 12.5021 12.1466 12.4353 12.5169C12.5199 12.4477 12.6135 12.3871 12.6875 12.308C13.1028 11.8643 13.3728 11.3363 13.5926 10.7733C13.7207 10.4454 13.8902 10.1359 13.8661 9.767C13.863 9.71906 13.9024 9.65036 13.9433 9.62011C14.7042 9.05739 15.1335 8.24827 15.5839 7.44833C15.8772 6.92734 16.2186 6.43353 16.5384 5.92743C16.5821 5.85814 16.6297 5.79068 16.6674 5.71815C16.8371 5.39186 17.048 5.10583 17.3414 4.87207C18.1484 4.22895 18.9374 3.56316 19.7434 2.91867C20.9638 1.94267 22.3692 1.36121 23.8881 1.06278C24.5544 0.931877 25.2389 0.893173 25.9154 0.815849C26.0054 0.805557 26.0975 0.814423 26.2003 0.881672C26.0843 0.910763 25.9692 0.944073 25.8521 0.968296C22.9245 1.57447 20.4615 2.99457 18.4455 5.20364C17.8933 5.80878 17.4516 6.48494 17.1174 7.23034C16.8597 7.80499 16.6068 8.38267 16.3796 8.96983C16.2111 9.40523 16.0612 9.85162 15.9509 10.3048C15.8445 10.7426 15.7752 11.194 15.8551 11.7115C16.0579 11.4272 16.0854 11.0874 16.405 10.9046C16.4556 10.9824 16.5129 11.0501 16.5481 11.1279C16.6925 11.4466 16.8604 11.7137 17.2506 11.7974C17.4578 11.8418 17.6373 12.0105 17.8328 12.1167C18.2874 12.3634 18.7622 12.4794 19.286 12.3901C19.8828 12.2883 20.451 12.1146 20.9831 11.8241C21.0402 11.7929 21.1017 11.7699 21.1766 11.7708C20.8542 12.0822 20.4919 12.3338 20.0832 12.5072C19.7702 12.64 19.45 12.7674 19.1209 12.8468C18.8881 12.903 18.6312 12.9078 18.3918 12.8789C17.5217 12.774 16.846 13.0449 16.4209 13.8403C16.0291 14.5733 15.6351 15.3063 15.3737 16.0989C15.3088 16.2956 15.2632 16.5135 15.2757 16.7175C15.2962 17.0524 15.3713 17.3839 15.4342 17.7856C16.0943 17.2463 16.7636 17.3305 17.4431 17.6006C17.2826 17.5928 17.1222 17.58 16.9616 17.5782C16.294 17.5703 15.7978 17.9817 15.5948 18.6193C15.4214 19.1636 15.4156 19.6946 15.523 20.2358C15.6926 20.3357 15.8372 20.2802 15.9673 20.1993C16.4173 19.9196 16.8525 19.6181 17.1783 19.19C17.3403 18.9771 17.5136 18.8349 17.8034 18.9305C17.8866 18.958 17.9865 18.9347 18.1304 18.9347C17.9919 19.0842 17.8788 19.2063 17.7512 19.3441C18.4352 19.1373 18.7272 18.6702 18.7415 17.7782C18.7878 17.7886 18.8365 17.7888 18.8736 17.8098C19.1014 17.9384 19.3176 17.8893 19.5486 17.803C20.1538 17.5769 20.6353 17.1553 21.1605 16.8035C21.5506 16.5422 21.9376 16.2717 22.2255 15.8899C22.3881 15.6742 22.5232 15.4434 22.5447 15.118C22.3189 15.3368 22.1221 15.5276 21.8992 15.7436C21.8234 15.5265 21.7605 15.3466 21.687 15.1361C22.1869 14.8436 22.0724 14.3072 22.1438 13.8476C22.1734 13.6573 22.0715 13.4464 22.0207 13.2038C22.297 13.0099 22.3629 12.656 22.3943 12.2878C22.4003 12.2175 22.3848 12.1424 22.4037 12.0765C22.6042 11.3789 22.2278 10.8724 21.769 10.4765C21.0924 9.89269 20.9282 9.21273 21.1359 8.3879C21.1847 8.19432 21.2041 7.99289 21.2588 7.80132C21.3848 7.35973 21.7425 6.93502 22.2286 6.68541C22.158 6.76548 22.0886 6.84671 22.0166 6.92543C21.651 7.32482 21.4714 7.80122 21.4441 8.33668C21.4325 8.56209 21.4441 8.78491 21.6363 8.95329C21.6858 8.99663 21.7173 9.0665 21.7434 9.12987C21.9308 9.58588 22.3456 9.73703 22.7614 9.46069C23.1122 9.22754 23.4405 8.95794 23.7649 8.6877C25.0426 7.62327 25.5563 6.2249 25.5259 4.59339C25.5248 4.53451 25.5215 4.47567 25.5205 4.41681C25.5202 4.40548 25.5255 4.39405 25.5352 4.3539C25.6862 4.72675 25.6867 5.09703 25.6803 5.46125C25.675 5.76577 25.6537 6.07817 25.5789 6.37159C25.4285 6.96113 25.3398 7.57256 25.0592 8.12173C24.9464 8.34242 24.9179 8.57041 24.9386 8.80395C24.9522 8.95712 24.9182 9.07463 24.8308 9.19659C24.5566 9.5792 24.563 10.0092 24.6643 10.4409C24.6887 10.5449 24.778 10.6826 24.8679 10.7123C25.0841 10.7836 25.0978 10.9463 25.1373 11.1191C25.2625 11.6662 25.624 12.0169 26.1114 12.251C26.1894 12.2885 26.2896 12.2799 26.3696 12.2912C26.3938 12.2499 26.4187 12.2211 26.4137 12.2141C26.1979 11.9159 26.3192 11.5464 26.2038 11.2274C26.084 10.8961 25.9786 10.5593 25.848 10.2325C25.7596 10.0114 25.8286 9.81252 25.9088 9.62408C26.1729 9.00357 26.3467 8.36192 26.4106 7.69083C26.4217 7.57396 26.4493 7.44305 26.4115 7.33989C26.2715 6.95761 26.4445 6.62443 26.551 6.28259C26.6695 5.90203 26.8105 5.52853 26.9372 5.15044C27.3446 3.93438 27.9317 2.82387 28.795 1.86354C29.2995 1.30237 29.8018 0.742474 30.4004 0.278946C30.539 0.171684 30.6811 0.0691032 30.8568 -3.8147e-06C30.8158 0.044735 30.7779 0.09272 30.7335 0.13377C29.5332 1.2439 28.7318 2.61089 28.1157 4.11299C27.7013 5.12335 27.5463 6.17118 27.5299 7.24456C27.5246 7.58938 27.6208 7.94327 27.7147 8.28067C28.003 9.31658 28.3799 10.3152 29.0509 11.1754C29.0726 11.2032 29.0928 11.2323 29.1146 11.2601C29.5664 11.8384 30.2745 11.8071 30.7007 11.2099C31.3519 10.2974 31.5672 9.29305 31.3875 8.19411C31.3745 8.11404 31.3714 8.03233 31.3872 7.9457C31.5396 8.22667 31.6014 8.53719 31.6367 8.84668C31.7727 10.0397 31.482 11.1094 30.6756 12.018C30.606 12.0965 30.5217 12.1617 30.4489 12.2375C30.1923 12.5044 30.0213 12.8054 29.9298 13.1782C29.7625 13.8602 29.8059 14.5385 29.9116 15.2106C30.0062 15.812 30.1635 16.4058 30.327 16.9935C30.4619 17.4781 30.673 17.7013 31.097 17.925C31.0819 17.9637 31.0775 18.0174 31.0485 18.0425C30.7718 18.2824 30.7906 18.6016 30.8089 18.9196C30.8258 19.2127 30.8362 19.5073 30.8748 19.7979C30.9085 20.0519 30.9761 20.3015 31.0321 20.5523C31.0446 20.6087 31.0838 20.6608 31.0887 20.7169C31.1265 21.1523 31.3959 21.4382 31.7147 21.6874C32.0525 21.9515 32.4293 22.1565 32.861 22.1805C33.3991 22.2103 33.8475 22.3686 34.1361 22.8642C34.123 22.5771 33.9581 22.379 33.7784 22.1905C33.722 22.1313 33.6462 22.0896 33.594 22.0275C33.5095 21.9269 33.4708 21.8242 33.5082 21.674C33.7602 20.6607 34.0098 19.6465 34.2329 18.6265C34.3291 18.1871 34.1958 17.76 34.0114 17.3598C33.9565 17.2406 33.8412 17.1493 33.7557 17.0478C33.9105 16.8368 34.0741 16.6138 34.2673 16.3506C34.3665 16.6595 34.4576 16.943 34.5487 17.2264C34.5946 16.657 34.4891 16.1272 34.2111 15.6374C34.1647 15.5557 34.1095 15.479 34.0631 15.3972C33.9029 15.1147 33.9054 15.1156 34.1028 14.8591C34.2896 14.6164 34.2932 14.3292 34.2622 14.0476C34.2406 13.8512 34.1922 13.6499 34.114 13.4689C33.8685 12.9007 33.9235 12.3199 34.0101 11.7359C34.0371 11.5541 34.0863 11.3756 34.1254 11.1956C34.1484 11.1972 34.1714 11.1989 34.1944 11.2005C34.1944 11.5444 34.1791 11.8893 34.1996 12.232C34.2142 12.4756 34.2528 12.7242 34.3273 12.9554C34.3787 13.1153 34.4785 13.2942 34.6109 13.3866C34.9829 13.646 35.1314 14.0073 35.1922 14.4301C35.2084 14.543 35.2389 14.6538 35.2779 14.8359C35.39 14.6804 35.4882 14.5801 35.5438 14.4599C35.6767 14.1723 35.7712 13.8659 35.9154 13.5848C36.0762 13.2716 36.0066 12.9861 35.851 12.7163C35.741 12.5256 35.5947 12.3491 35.4374 12.1939C34.8043 11.5694 34.4372 10.8218 34.3107 9.93988C34.2183 9.29551 34.2906 8.67757 34.5286 8.06002C34.5338 8.11698 34.5431 8.17396 34.5429 8.23089C34.5427 8.28955 34.5358 8.34859 34.5273 8.40682C34.3737 9.46794 34.6646 10.4097 35.2811 11.2684C35.4948 11.5659 35.7762 11.6661 36.1336 11.6575C36.5681 11.647 36.8828 11.5615 37.1107 11.1009C37.672 9.96698 38.1489 8.80896 38.3686 7.56195C38.4362 7.1783 38.4072 6.7671 38.3617 6.37559C38.0836 3.98022 37.015 1.97145 35.3417 0.265759C35.2925 0.215626 35.2453 0.163536 35.2164 0.0766907C35.278 0.108387 35.3463 0.131432 35.4003 0.173031C36.3586 0.911293 37.1741 1.78742 37.8545 2.78554C38.4209 3.6165 38.8468 4.51448 39.0936 5.49801C39.1903 5.88361 39.3625 6.24993 39.4958 6.62667C39.5704 6.83772 39.589 7.04517 39.5496 7.27767C39.5072 7.52758 39.5166 7.80173 39.5724 8.04968C39.6829 8.54052 39.8362 9.0221 39.9819 9.50443C40.0345 9.67829 40.1424 9.81448 40.3299 9.87394C40.5864 9.95526 40.7862 9.84655 40.8084 9.57477C40.8235 9.39067 40.7934 9.20138 40.7698 9.01617C40.757 8.9161 40.7154 8.81973 40.733 8.69832C40.8061 8.81411 40.8791 8.92994 40.9526 9.04546C41.0306 9.31901 41.1034 9.60304 40.9716 9.87006C40.8503 10.1161 40.6817 10.3386 40.5172 10.5979C40.9266 10.7319 41.3057 10.6385 41.7204 10.5096C41.6083 9.91677 41.397 9.42246 40.9408 9.05556Z" fill="#C5C4C2"/>
</svg>
