<svg width="167" height="64" viewBox="0 0 167 64" fill="none" xmlns="http://www.w3.org/2000/svg">
<path d="M129.124 20.7004V15.1391C129.124 5.56131 123.27 0 113.284 0C102.955 0 97.4453 5.56131 97.4453 15.1391V46.3443C97.4453 55.9221 103.299 61.4834 113.284 61.4834C123.614 61.4834 129.124 55.9221 129.124 46.3443V40.783H118.794V46.9622C118.794 51.2877 116.728 52.8325 113.284 52.8325C109.841 52.8325 107.775 51.2877 107.775 46.9622V14.5212C107.775 10.1957 109.841 8.65093 113.284 8.65093C116.728 8.65093 118.794 10.1957 118.794 14.5212V20.7004H129.124ZM129.124 20.7004V15.1391C129.124 5.56131 123.27 0 113.284 0C102.955 0 97.4453 5.56131 97.4453 15.1391V46.3443C97.4453 55.9221 103.299 61.4834 113.284 61.4834C123.614 61.4834 129.124 55.9221 129.124 46.3443V40.783H118.794V46.9622C118.794 51.2877 116.728 52.8325 113.284 52.8325C109.841 52.8325 107.775 51.2877 107.775 46.9622V14.5212C107.775 10.1957 109.841 8.65093 113.284 8.65093C116.728 8.65093 118.794 10.1957 118.794 14.5212V20.7004H129.124Z" fill="white" style="mix-blend-mode:difference"/>
<path d="M60.9461 1.54626V47.2726C60.9461 51.5981 58.8801 53.1429 55.4368 53.1429C51.9935 53.1429 49.9275 51.5981 49.9275 47.2726V1.54626H39.5977V46.3457C39.5977 55.9235 45.4513 61.4849 55.4368 61.4849C65.7667 61.4849 71.2759 55.9235 71.2759 46.3457V1.54626H60.9461ZM60.9461 1.54626V47.2726C60.9461 51.5981 58.8801 53.1429 55.4368 53.1429C51.9935 53.1429 49.9275 51.5981 49.9275 47.2726V1.54626H39.5977V46.3457C39.5977 55.9235 45.4513 61.4849 55.4368 61.4849C65.7667 61.4849 71.2759 55.9235 71.2759 46.3457V1.54626H60.9461Z" fill="white" style="mix-blend-mode:difference"/>
<path d="M89.5258 15.4479H78.8516V60.2473H89.5258V15.4479Z" fill="white" style="mix-blend-mode:difference"/>
<path d="M89.5252 1.54626H79.1953V10.8151H89.5252V1.54626Z" fill="white" style="mix-blend-mode:difference"/>
<path d="M166.999 1.23401V18.8448C166.999 25.0241 164.933 29.3495 160.113 31.2033C165.622 33.0571 166.999 37.6915 166.999 44.1797V59.9368H156.325V43.8707C156.325 38.0005 154.259 35.8377 149.438 35.8377H145.651V59.9368H134.977V1.54297H145.651V27.8047H149.783C153.57 27.8047 155.981 26.2599 155.981 21.3165V1.23401H166.999Z" fill="white" style="mix-blend-mode:difference"/>
<path d="M22.7257 58.7027C20.6597 59.3207 18.2494 59.6296 15.8391 59.6296C5.85359 59.6296 0 54.3773 0 44.7995V14.8302C0.344329 5.25235 5.85359 0 16.1835 0C26.5133 0 32.0226 5.25235 32.0226 14.8302V44.7995C32.0226 48.816 30.9896 51.9056 29.268 54.3773C29.9566 55.6131 31.334 55.6131 33.0556 55.6131H34.7772V63.9551H31.6783C27.5463 64.2641 24.103 63.0282 22.7257 58.7027ZM21.3484 45.4174V14.2122C21.3484 9.88678 19.2824 8.34197 15.8391 8.34197C12.3958 8.34197 10.6742 9.88678 10.6742 14.2122V45.4174C10.6742 49.7428 12.7402 51.2877 16.1835 51.2877C19.6268 51.2877 21.3484 49.7428 21.3484 45.4174Z" fill="white" style="mix-blend-mode:difference"/>
</svg>
