<svg width="105" height="100" viewBox="0 0 105 100" fill="none" xmlns="http://www.w3.org/2000/svg">
<path d="M79.0527 62.3212V39.024C78.8964 33.5198 76.2306 30.7174 71.0553 30.6167C65.8533 30.7182 63.2008 33.5206 63.0977 39.024V62.3212C63.2003 67.8761 65.8529 70.6785 71.0553 70.7285C76.2306 70.6789 78.8964 67.8764 79.0527 62.3212Z" fill="white" style="mix-blend-mode:difference"/>
<path d="M40.5838 56.3836C40.0256 55.2851 39.1697 54.3535 38.107 53.688C36.6302 52.8366 34.9507 52.369 33.2316 52.3305C32.322 52.2467 31.4044 52.3497 30.5389 52.6326C29.7643 52.8932 29.0395 53.2752 28.3934 53.7635C27.7765 54.234 27.2313 54.7862 26.774 55.4039C26.3427 55.9807 25.9641 56.5925 25.6423 57.2326C25.3689 57.7689 25.1534 58.3311 24.9995 58.9102C24.8891 59.2973 24.8238 59.6951 24.8047 60.0963C24.8047 60.7254 24.8175 61.4229 24.8432 62.1888C24.8696 62.9604 24.9546 63.729 25.0975 64.4886C25.2402 65.2564 25.4824 66.0038 25.8185 66.713C26.161 67.4358 26.6521 68.0837 27.2619 68.6173C27.9641 69.2143 28.7789 69.6748 29.6616 69.9736C30.8357 70.3557 32.0704 70.5343 33.3088 70.5012C34.3489 70.5463 35.3884 70.3993 36.3716 70.0683C37.1778 69.7899 37.9296 69.3821 38.5953 68.862C39.1835 68.3973 39.6903 67.8437 40.0958 67.2228C40.4628 66.6636 40.7701 66.0697 41.0128 65.4504C41.2139 64.9438 41.3643 64.4198 41.462 63.8855C41.5264 63.5429 41.5654 63.1962 41.5786 62.8482C41.5786 61.8944 41.5397 60.8391 41.462 59.6824C41.3874 58.5391 41.0894 57.4197 40.5838 56.3836Z" fill="white" style="mix-blend-mode:difference"/>
<path d="M0 0V100H104.482V0H0ZM30.4157 93.3923H6.55676V6.46326H34.319V10.3387H10.567V89.5169H32.2133L30.4157 93.3923ZM35.7175 78.3905C35.2052 78.4671 34.6742 78.5269 34.1245 78.5698C32.0195 78.7901 29.8905 78.6372 27.8424 78.1183C26.1509 77.6745 24.5533 76.9471 23.1223 75.9691C21.8389 75.0808 20.7183 73.9913 19.8068 72.7458C18.9534 71.5835 18.2522 70.3236 17.7193 68.9948C17.2371 67.8046 16.8967 66.5652 16.7047 65.3005C16.5398 64.3032 16.5071 63.2897 16.6075 62.2845C16.7638 61.053 16.9328 59.9534 17.1144 58.9855C17.2969 58.0186 17.5115 57.0953 17.7581 56.2155C18.0047 55.3358 18.284 54.4683 18.596 53.6132C18.9087 52.7587 19.2733 51.8289 19.6898 50.8238C19.792 50.5728 20.0777 49.9763 20.5469 49.0343C21.0152 48.0916 21.5936 46.9289 22.2824 45.5464C22.9711 44.1647 23.7448 42.6443 24.6033 40.985C25.4615 39.3263 26.32 37.6424 27.1789 35.9333C29.207 31.9619 31.4825 27.5262 34.0053 22.626H43.2134C43.1189 22.9079 42.9946 23.1796 42.8424 23.4369C42.5687 23.9767 42.1981 24.7118 41.7306 25.642C41.2612 26.572 40.7148 27.64 40.0914 28.8461C39.4668 30.0523 38.8101 31.3216 38.1214 32.6537C37.4326 33.9859 36.7305 35.3303 36.015 36.6871C35.2991 38.0445 34.6101 39.3389 33.9477 40.5703C33.2841 41.8017 32.6792 42.9201 32.1331 43.9255C31.5877 44.9311 31.1329 45.7353 30.7686 46.3379C31.551 45.9019 32.4232 45.6379 33.3231 45.5647C34.4197 45.4744 35.5213 45.4557 36.6205 45.5086C38.232 45.5233 39.8264 45.8302 41.3206 46.4136C43.757 47.3817 45.8078 49.0797 47.1716 51.2578C47.314 51.4865 47.4493 51.7123 47.5776 51.9382L35.7175 78.3905ZM59.9905 74.4608C56.6871 71.721 55.0094 67.8252 54.9576 62.7735V44.2527L63.9348 24.2312C66.1667 23.2211 68.6057 22.7107 71.07 22.7382C75.2294 22.6439 79.2666 24.1019 82.3425 26.8094C85.4885 29.5492 87.114 33.4573 87.2189 38.5335V62.7735C87.1137 67.8261 85.4882 71.7219 82.3425 74.4608C79.2621 77.1698 75.2347 78.6513 71.07 78.6075C66.9672 78.628 63.0086 77.1464 59.9902 74.4608H59.9905ZM97.8833 93.3923H72.0912V89.5169H93.7605V10.3387H69.4103L71.2079 6.46326H97.8831L97.8833 93.3923Z" fill="white" style="mix-blend-mode:difference"/>
</svg>
